<svg id="Слой_1" data-name="Слой 1" xmlns="http://www.w3.org/2000/svg" xmlns:xlink="http://www.w3.org/1999/xlink" viewBox="0 0 491.49 319.67"><defs><style>.cls-1,.cls-215,.cls-217{fill:none;}.cls-1,.cls-10,.cls-100,.cls-101,.cls-102,.cls-103,.cls-104,.cls-105,.cls-106,.cls-107,.cls-108,.cls-109,.cls-11,.cls-110,.cls-111,.cls-112,.cls-113,.cls-114,.cls-115,.cls-116,.cls-117,.cls-118,.cls-119,.cls-12,.cls-120,.cls-121,.cls-122,.cls-123,.cls-124,.cls-125,.cls-126,.cls-127,.cls-128,.cls-129,.cls-13,.cls-130,.cls-131,.cls-132,.cls-133,.cls-134,.cls-135,.cls-136,.cls-137,.cls-138,.cls-139,.cls-14,.cls-140,.cls-141,.cls-142,.cls-143,.cls-144,.cls-145,.cls-146,.cls-147,.cls-148,.cls-149,.cls-15,.cls-150,.cls-151,.cls-152,.cls-153,.cls-154,.cls-155,.cls-156,.cls-157,.cls-158,.cls-159,.cls-16,.cls-160,.cls-161,.cls-162,.cls-163,.cls-164,.cls-165,.cls-166,.cls-167,.cls-168,.cls-169,.cls-17,.cls-170,.cls-171,.cls-172,.cls-173,.cls-174,.cls-175,.cls-176,.cls-177,.cls-178,.cls-179,.cls-18,.cls-180,.cls-181,.cls-182,.cls-183,.cls-184,.cls-185,.cls-186,.cls-187,.cls-188,.cls-189,.cls-19,.cls-190,.cls-191,.cls-192,.cls-193,.cls-194,.cls-195,.cls-196,.cls-197,.cls-198,.cls-199,.cls-2,.cls-20,.cls-200,.cls-201,.cls-202,.cls-203,.cls-204,.cls-205,.cls-206,.cls-207,.cls-208,.cls-209,.cls-21,.cls-210,.cls-211,.cls-212,.cls-213,.cls-214,.cls-215,.cls-216,.cls-219,.cls-22,.cls-220,.cls-221,.cls-222,.cls-223,.cls-224,.cls-225,.cls-226,.cls-23,.cls-24,.cls-25,.cls-26,.cls-27,.cls-28,.cls-29,.cls-3,.cls-30,.cls-31,.cls-32,.cls-33,.cls-34,.cls-35,.cls-36,.cls-37,.cls-38,.cls-39,.cls-40,.cls-41,.cls-42,.cls-43,.cls-44,.cls-45,.cls-46,.cls-47,.cls-48,.cls-49,.cls-5,.cls-50,.cls-51,.cls-52,.cls-53,.cls-54,.cls-55,.cls-56,.cls-57,.cls-58,.cls-59,.cls-6,.cls-60,.cls-61,.cls-62,.cls-63,.cls-64,.cls-65,.cls-66,.cls-67,.cls-68,.cls-69,.cls-7,.cls-70,.cls-71,.cls-72,.cls-73,.cls-74,.cls-75,.cls-76,.cls-77,.cls-78,.cls-79,.cls-8,.cls-80,.cls-81,.cls-82,.cls-83,.cls-84,.cls-85,.cls-86,.cls-87,.cls-88,.cls-89,.cls-9,.cls-90,.cls-91,.cls-92,.cls-93,.cls-94,.cls-95,.cls-96,.cls-97,.cls-98,.cls-99{stroke:#fff;}.cls-1,.cls-10,.cls-100,.cls-101,.cls-102,.cls-103,.cls-104,.cls-105,.cls-106,.cls-107,.cls-108,.cls-109,.cls-11,.cls-110,.cls-111,.cls-112,.cls-113,.cls-114,.cls-115,.cls-116,.cls-117,.cls-118,.cls-119,.cls-12,.cls-120,.cls-121,.cls-122,.cls-123,.cls-124,.cls-125,.cls-126,.cls-127,.cls-128,.cls-129,.cls-13,.cls-130,.cls-131,.cls-132,.cls-133,.cls-134,.cls-135,.cls-136,.cls-137,.cls-138,.cls-139,.cls-14,.cls-140,.cls-141,.cls-142,.cls-143,.cls-144,.cls-145,.cls-146,.cls-147,.cls-148,.cls-149,.cls-15,.cls-150,.cls-151,.cls-152,.cls-153,.cls-154,.cls-155,.cls-156,.cls-157,.cls-158,.cls-159,.cls-16,.cls-160,.cls-161,.cls-162,.cls-163,.cls-164,.cls-165,.cls-166,.cls-167,.cls-168,.cls-169,.cls-17,.cls-170,.cls-171,.cls-172,.cls-173,.cls-174,.cls-175,.cls-176,.cls-177,.cls-178,.cls-179,.cls-18,.cls-180,.cls-181,.cls-182,.cls-183,.cls-184,.cls-185,.cls-186,.cls-187,.cls-188,.cls-189,.cls-19,.cls-190,.cls-191,.cls-192,.cls-193,.cls-194,.cls-195,.cls-196,.cls-197,.cls-198,.cls-199,.cls-2,.cls-20,.cls-200,.cls-201,.cls-202,.cls-203,.cls-204,.cls-205,.cls-206,.cls-207,.cls-208,.cls-209,.cls-21,.cls-210,.cls-211,.cls-212,.cls-213,.cls-214,.cls-215,.cls-216,.cls-217,.cls-219,.cls-22,.cls-220,.cls-221,.cls-222,.cls-223,.cls-224,.cls-225,.cls-226,.cls-23,.cls-24,.cls-25,.cls-26,.cls-27,.cls-28,.cls-29,.cls-3,.cls-30,.cls-31,.cls-32,.cls-33,.cls-34,.cls-35,.cls-36,.cls-37,.cls-38,.cls-39,.cls-40,.cls-41,.cls-42,.cls-43,.cls-44,.cls-45,.cls-46,.cls-47,.cls-48,.cls-49,.cls-5,.cls-50,.cls-51,.cls-52,.cls-53,.cls-54,.cls-55,.cls-56,.cls-57,.cls-58,.cls-59,.cls-6,.cls-60,.cls-61,.cls-62,.cls-63,.cls-64,.cls-65,.cls-66,.cls-67,.cls-68,.cls-69,.cls-7,.cls-70,.cls-71,.cls-72,.cls-73,.cls-74,.cls-75,.cls-76,.cls-77,.cls-78,.cls-79,.cls-8,.cls-80,.cls-81,.cls-82,.cls-83,.cls-84,.cls-85,.cls-86,.cls-87,.cls-88,.cls-89,.cls-9,.cls-90,.cls-91,.cls-92,.cls-93,.cls-94,.cls-95,.cls-96,.cls-97,.cls-98,.cls-99{stroke-miterlimit:10;stroke-width:0.01px;}.cls-2{fill:#141517;}.cls-2,.cls-216{fill-rule:evenodd;}.cls-3{fill:#342425;}.cls-4{clip-path:url(#clip-path);}.cls-5{fill:#38383a;}.cls-6{fill:#39393b;}.cls-7{fill:#3a3a3d;}.cls-8{fill:#3b3b3e;}.cls-9{fill:#3c3c3f;}.cls-10{fill:#3d3d3f;}.cls-11{fill:#3e3e40;}.cls-12{fill:#403f41;}.cls-13{fill:#414042;}.cls-14{fill:#424143;}.cls-15{fill:#434244;}.cls-16{fill:#444345;}.cls-17{fill:#444446;}.cls-18{fill:#464548;}.cls-19{fill:#474649;}.cls-20{fill:#48474a;}.cls-21{fill:#49484b;}.cls-22{fill:#4a494b;}.cls-23{fill:#4b4a4c;}.cls-24{fill:#4c4b4d;}.cls-25{fill:#4d4c4e;}.cls-26{fill:#4e4d4f;}.cls-27{fill:#4e4e50;}.cls-28{fill:#4f4f51;}.cls-29{fill:#505052;}.cls-30{fill:#515052;}.cls-31{fill:#525154;}.cls-32{fill:#535255;}.cls-33{fill:#545355;}.cls-34{fill:#555456;}.cls-35{fill:#565557;}.cls-36{fill:#575658;}.cls-37{fill:#585859;}.cls-38{fill:#5a595b;}.cls-39{fill:#59595b;}.cls-40{fill:#5b5b5d;}.cls-41{fill:#5c5b5e;}.cls-42{fill:#5d5c5e;}.cls-43{fill:#5e5d5f;}.cls-44{fill:#5f5e60;}.cls-45{fill:#605f61;}.cls-46{fill:#616062;}.cls-47{fill:#626163;}.cls-48{fill:#636264;}.cls-49{fill:#636365;}.cls-50{fill:#646466;}.cls-51{fill:#656568;}.cls-52{fill:#666668;}.cls-53{fill:#686868;}.cls-54{fill:#696769;}.cls-55{fill:#69686a;}.cls-56{fill:#6a696b;}.cls-57{fill:#6b6a6c;}.cls-58{fill:#6c6b6d;}.cls-59{fill:#6d6c6e;}.cls-60{fill:#6e6e70;}.cls-61{fill:#6e6e71;}.cls-62{fill:#6f6f72;}.cls-63{fill:#717072;}.cls-64{fill:#717172;}.cls-65{fill:#737374;}.cls-66{fill:#737274;}.cls-67{fill:#747476;}.cls-68{fill:#757476;}.cls-69{fill:#767678;}.cls-70{fill:#777678;}.cls-71{fill:#79787a;}.cls-72{fill:#7a797b;}.cls-73{fill:#7a7a7c;}.cls-74{fill:#7a7b7c;}.cls-75{fill:#7b7b7c;}.cls-76{fill:#7c7d7d;}.cls-77{fill:#7e7e7f;}.cls-78{fill:#7e7d7f;}.cls-79{fill:#7f7e80;}.cls-80{fill:gray;}.cls-81{fill:#818081;}.cls-82{fill:#818183;}.cls-83{fill:#828283;}.cls-84{fill:#828284;}.cls-85{fill:#848384;}.cls-86{fill:#858586;}.cls-87{fill:#868586;}.cls-88{fill:#878687;}.cls-89{fill:#878889;}.cls-90{fill:#888789;}.cls-91{fill:#8a888a;}.cls-92{fill:#8b898c;}.cls-93{fill:#8c8b8d;}.cls-94{fill:#8d8b8d;}.cls-95{fill:#8e8d8e;}.cls-96{fill:#8f8e8f;}.cls-97{fill:#8f9090;}.cls-98{fill:#919192;}.cls-99{fill:#929293;}.cls-100{fill:#949395;}.cls-101{fill:#959496;}.cls-102{fill:#959597;}.cls-103{fill:#969597;}.cls-104{fill:#979698;}.cls-105{fill:#979898;}.cls-106{fill:#99999a;}.cls-107{fill:#9a9a9b;}.cls-108{fill:#9b9b9c;}.cls-109{fill:#9b9c9d;}.cls-110{fill:#9c9d9e;}.cls-111{fill:#9d9e9f;}.cls-112{fill:#9e9da0;}.cls-113{fill:#a09ea1;}.cls-114{fill:#a19fa2;}.cls-115{fill:#a2a1a2;}.cls-116{fill:#a2a2a2;}.cls-117{fill:#a3a2a3;}.cls-118{fill:#a4a4a5;}.cls-119{fill:#a5a5a6;}.cls-120{fill:#a6a6a6;}.cls-121{fill:#a7a6a8;}.cls-122{fill:#a8a8a9;}.cls-123{fill:#a9a9a9;}.cls-124{fill:#aaa8aa;}.cls-125{fill:#aba9ab;}.cls-126{fill:#acaaac;}.cls-127{fill:#acabac;}.cls-128{fill:#aeadae;}.cls-129{fill:#aeadaf;}.cls-130{fill:#afaeb0;}.cls-131{fill:#afafb1;}.cls-132{fill:#b0b0b2;}.cls-133{fill:#b1b1b3;}.cls-134{fill:#b3b3b4;}.cls-135{fill:#b4b4b5;}.cls-136{fill:#b5b4b5;}.cls-137{fill:#b6b5b6;}.cls-138{fill:#b7b6b7;}.cls-139{fill:#b8b7b8;}.cls-140{fill:#b8b8b8;}.cls-141{fill:#b9b9b9;}.cls-142{fill:#b9babb;}.cls-143{fill:#bbbbbc;}.cls-144{fill:#bcbcbd;}.cls-145{fill:#bdbdbe;}.cls-146{fill:#bdbebe;}.cls-147{fill:#bfbebe;}.cls-148{fill:silver;}.cls-149{fill:#c1c0c1;}.cls-150{fill:#c2c1c2;}.cls-151{fill:#c3c2c3;}.cls-152{fill:#c3c3c3;}.cls-153{fill:#c4c4c5;}.cls-154{fill:#c5c4c5;}.cls-155{fill:#c6c6c7;}.cls-156{fill:#c7c6c8;}.cls-157{fill:#c8c7c7;}.cls-158{fill:#c9c9c8;}.cls-159{fill:#cacaca;}.cls-160{fill:#cbcbcb;}.cls-161{fill:#ccc;}.cls-162{fill:#cdcccc;}.cls-163{fill:#cecdce;}.cls-164{fill:#cececf;}.cls-165{fill:#cfcfd0;}.cls-166{fill:#d0d0d1;}.cls-167{fill:#d1d1d2;}.cls-168{fill:#d3d2d2;}.cls-169{fill:#d3d3d3;}.cls-170{fill:#d4d4d4;}.cls-171{fill:#d5d5d4;}.cls-172{fill:#d6d6d6;}.cls-173{fill:#d7d6d7;}.cls-174{fill:#d8d6d8;}.cls-175{fill:#d8d8d8;}.cls-176{fill:#d9d9da;}.cls-177{fill:#dad9db;}.cls-178{fill:#dbdbda;}.cls-179{fill:#dcdcdc;}.cls-180{fill:#ddd;}.cls-181{fill:#dedede;}.cls-182{fill:#dededf;}.cls-183{fill:#e0e0e0;}.cls-184{fill:#e1e0e1;}.cls-185{fill:#e2e1e2;}.cls-186{fill:#e3e1e3;}.cls-187{fill:#e3e3e4;}.cls-188{fill:#e4e3e4;}.cls-189{fill:#e5e5e5;}.cls-190{fill:#e6e6e5;}.cls-191{fill:#e7e7e7;}.cls-192{fill:#e7e7e8;}.cls-193{fill:#e9e8e9;}.cls-194{fill:#ebeae9;}.cls-195{fill:#ecebeb;}.cls-196{fill:#ececec;}.cls-197{fill:#eeeced;}.cls-198{fill:#ededee;}.cls-199{fill:#eeedef;}.cls-200{fill:#efefee;}.cls-201{fill:#f0f0f0;}.cls-202{fill:#f1f2f1;}.cls-203{fill:#f2f3f3;}.cls-204{fill:#f3f3f4;}.cls-205{fill:#f4f5f5;}.cls-206{fill:#f5f5f5;}.cls-207{fill:#f6f7f7;}.cls-208{fill:#f7f7f7;}.cls-209{fill:#f7f6f8;}.cls-210{fill:#f8f9f9;}.cls-211{fill:#f9fafb;}.cls-212{fill:#fbfbfc;}.cls-213{fill:#fcfdfd;}.cls-214{fill:#fff;}.cls-215,.cls-217{stroke-linecap:round;}.cls-216,.cls-223{fill:#000105;}.cls-217{stroke:#000105;}.cls-218{clip-path:url(#clip-path-2);}.cls-219{fill:#fdfbf8;}.cls-220{fill:#fdfbf9;}.cls-221{fill:#fffffc;}.cls-222{fill:#fffffd;}.cls-224{fill:#4c4c4c;}.cls-225{fill:#271c1c;}.cls-226{fill:#fdf9f6;}</style><clipPath id="clip-path" transform="translate(-68.83 -106.2)"><path class="cls-1" d="M315,381.59c52.41-64.15,189.6-80.5,236.56-88.56,5-1.46,5.13-2,2.41-4.53l-88.59-83.84c-59.34,12-113.79,21.66-149.47,37-27.7-15.93-99-32.37-151.51-37l-89,84.21c-3,2.83,1.32,3.61,1.68,3.61C97.9,294.63,271.89,317.25,315,381.59Z"/></clipPath><clipPath id="clip-path-2" transform="translate(-68.83 -106.2)"><path class="cls-1" d="M390,183c21.31,20.06,34.32,48.58,35.95,80.86.41,7.79-.14,8.93-1.22,16.63-5.67,7.32-90.68,32.05-103.14,32.6-21,.14-92.08-17.31-114.93-35.17-.13-1.56-1.22-2-1.27-3.48-1.63-32.23,7.66-60.72,26.8-82.92s46.37-36.77,77.2-38.42S368.78,163,390,183Z"/></clipPath></defs><title>logosvg</title><path class="cls-2" d="M501.29,326.6c-36,59.11-106.13,99.27-186.74,99.27s-150.87-40.25-186.87-99.55c26.52,4.67,55,10.35,70.63,15.8,86.78,30.49,107.68,62.27,117.11,62.46,7,.13,36.22-34.76,115-62.46,15.6-5.45,44.11-11,70.86-15.52Z" transform="translate(-68.83 -106.2)"/><polygon class="cls-3" points="245.36 266.14 246.59 107.2 247.58 107.2 246.4 266.14 245.36 266.14"/><g class="cls-4"><polygon class="cls-5" points="491.49 102.81 491.44 103.77 8.17 81.74 8.21 80.78 491.49 102.81"/><polygon class="cls-6" points="491.44 103.35 491.4 104.64 8.12 82.57 8.17 81.28 491.44 103.35"/><polygon class="cls-7" points="491.4 104.18 491.35 105.46 8.07 83.44 8.12 82.15 491.4 104.18"/><polygon class="cls-8" points="491.35 105.05 491.31 106.33 8.03 84.31 8.07 83.02 491.35 105.05"/><polygon class="cls-9" points="491.35 105.92 491.26 107.2 7.98 85.13 8.07 83.85 491.35 105.92"/><polygon class="cls-10" points="491.31 106.74 491.22 108.03 7.94 86 8.03 84.72 491.31 106.74"/><polygon class="cls-11" points="491.26 107.61 491.22 108.89 7.94 86.87 7.98 85.59 491.26 107.61"/><polygon class="cls-12" points="491.22 108.48 491.17 109.72 7.89 87.69 7.94 86.41 491.22 108.48"/><polygon class="cls-13" points="491.17 109.31 491.13 110.59 7.85 88.56 7.89 87.28 491.17 109.31"/><polygon class="cls-14" points="491.13 110.18 491.08 111.46 7.8 89.43 7.85 88.15 491.13 110.18"/><polygon class="cls-15" points="491.08 111 491.03 112.28 7.76 90.26 7.8 88.98 491.08 111"/><polygon class="cls-16" points="491.08 111.87 490.99 113.15 7.71 91.13 7.8 89.85 491.08 111.87"/><polygon class="cls-17" points="491.03 112.74 490.99 114.02 7.71 92 7.76 90.72 491.03 112.74"/><polygon class="cls-17" points="490.99 113.56 490.94 114.85 7.67 92.82 7.71 91.54 490.99 113.56"/><polygon class="cls-18" points="490.94 114.44 490.9 115.72 7.62 93.69 7.67 92.41 490.94 114.44"/><polygon class="cls-19" points="490.9 115.31 490.85 116.59 7.58 94.56 7.62 93.28 490.9 115.31"/><polygon class="cls-20" points="490.85 116.13 490.81 117.41 7.53 95.39 7.58 94.11 490.85 116.13"/><polygon class="cls-21" points="490.85 117 490.76 118.28 7.49 96.26 7.58 94.97 490.85 117"/><polygon class="cls-22" points="490.81 117.87 490.72 119.15 7.44 97.13 7.53 95.84 490.81 117.87"/><polygon class="cls-23" points="490.76 118.69 490.72 119.98 7.44 97.95 7.49 96.67 490.76 118.69"/><polygon class="cls-24" points="490.72 119.56 490.67 120.85 7.39 98.82 7.44 97.54 490.72 119.56"/><polygon class="cls-25" points="490.67 120.43 490.63 121.72 7.35 99.69 7.39 98.41 490.67 120.43"/><polygon class="cls-26" points="490.63 121.26 490.58 122.54 7.3 100.52 7.35 99.23 490.63 121.26"/><polygon class="cls-27" points="490.63 122.13 490.54 123.41 7.26 101.39 7.35 100.1 490.63 122.13"/><polygon class="cls-28" points="490.58 123 490.49 124.28 7.21 102.25 7.3 100.97 490.58 123"/><polygon class="cls-29" points="490.54 123.82 490.49 125.1 7.21 103.08 7.26 101.8 490.54 123.82"/><polygon class="cls-30" points="490.49 124.69 490.44 125.97 7.17 103.95 7.21 102.67 490.49 124.69"/><polygon class="cls-31" points="490.44 125.56 490.4 126.84 7.12 104.82 7.17 103.54 490.44 125.56"/><polygon class="cls-32" points="490.4 126.39 490.35 127.67 7.08 105.64 7.12 104.36 490.4 126.39"/><polygon class="cls-33" points="490.35 127.26 490.31 128.54 7.03 106.51 7.08 105.23 490.35 127.26"/><polygon class="cls-34" points="490.35 128.13 490.26 129.41 6.99 107.38 7.08 106.1 490.35 128.13"/><polygon class="cls-35" points="490.31 128.95 490.26 130.23 6.99 108.21 7.03 106.93 490.31 128.95"/><polygon class="cls-36" points="490.26 129.82 490.22 131.1 6.94 109.08 6.99 107.8 490.26 129.82"/><polygon class="cls-37" points="490.22 130.69 490.17 131.97 6.9 109.95 6.94 108.67 490.22 130.69"/><polygon class="cls-38" points="490.17 131.51 490.13 132.8 6.85 110.77 6.9 109.49 490.17 131.51"/><polygon class="cls-39" points="490.13 132.38 490.08 133.67 6.81 111.64 6.85 110.36 490.13 132.38"/><polygon class="cls-40" points="490.13 133.25 490.04 134.54 6.76 112.51 6.85 111.23 490.13 133.25"/><polygon class="cls-40" points="490.08 134.08 489.99 135.36 6.71 113.34 6.81 112.05 490.08 134.08"/><polygon class="cls-41" points="490.04 134.95 489.99 136.23 6.71 114.21 6.76 112.92 490.04 134.95"/><polygon class="cls-42" points="489.99 135.82 489.95 137.1 6.67 115.08 6.71 113.79 489.99 135.82"/><polygon class="cls-43" points="489.95 136.64 489.9 137.93 6.62 115.9 6.67 114.62 489.95 136.64"/><polygon class="cls-44" points="489.9 137.51 489.86 138.79 6.58 116.77 6.62 115.49 489.9 137.51"/><polygon class="cls-45" points="489.9 138.38 489.81 139.66 6.53 117.64 6.62 116.36 489.9 138.38"/><polygon class="cls-46" points="489.86 139.21 489.76 140.49 6.49 118.47 6.58 117.18 489.86 139.21"/><polygon class="cls-47" points="489.81 140.08 489.76 141.36 6.49 119.33 6.53 118.05 489.81 140.08"/><polygon class="cls-48" points="489.76 140.95 489.72 142.23 6.44 120.2 6.49 118.92 489.76 140.95"/><polygon class="cls-49" points="489.72 141.77 489.67 143.05 6.4 121.03 6.44 119.75 489.72 141.77"/><polygon class="cls-50" points="489.67 142.64 489.63 143.92 6.35 121.9 6.4 120.62 489.67 142.64"/><polygon class="cls-51" points="489.63 143.51 489.58 144.79 6.31 122.77 6.35 121.49 489.63 143.51"/><polygon class="cls-52" points="489.63 144.34 489.54 145.62 6.26 123.59 6.35 122.31 489.63 144.34"/><polygon class="cls-53" points="489.58 145.21 489.54 146.49 6.26 124.46 6.31 123.18 489.58 145.21"/><polygon class="cls-54" points="489.54 146.08 489.49 147.36 6.22 125.33 6.26 124.05 489.54 146.08"/><polygon class="cls-55" points="489.49 146.9 489.45 148.18 6.17 126.16 6.22 124.88 489.49 146.9"/><polygon class="cls-56" points="489.45 147.77 489.4 149.05 6.13 127.03 6.17 125.75 489.45 147.77"/><polygon class="cls-57" points="489.4 148.64 489.36 149.92 6.08 127.9 6.13 126.61 489.4 148.64"/><polygon class="cls-58" points="489.4 149.46 489.31 150.75 6.04 128.72 6.13 127.44 489.4 149.46"/><polygon class="cls-59" points="489.36 150.33 489.27 151.62 5.99 129.59 6.08 128.31 489.36 150.33"/><polygon class="cls-60" points="489.31 151.2 489.27 152.49 5.99 130.46 6.04 129.18 489.31 151.2"/><polygon class="cls-61" points="489.27 152.03 489.22 153.31 5.94 131.29 5.99 130 489.27 152.03"/><polygon class="cls-62" points="489.22 152.9 489.18 154.18 5.9 132.16 5.94 130.87 489.22 152.9"/><polygon class="cls-63" points="489.18 153.77 489.13 155.05 5.85 133.03 5.9 131.74 489.18 153.77"/><polygon class="cls-64" points="489.18 154.59 489.08 155.88 5.81 133.85 5.9 132.57 489.18 154.59"/><polygon class="cls-65" points="489.13 155.46 489.04 156.75 5.76 134.72 5.85 133.44 489.13 155.46"/><polygon class="cls-66" points="489.08 156.33 489.04 157.62 5.76 135.59 5.81 134.31 489.08 156.33"/><polygon class="cls-67" points="489.04 157.16 488.99 158.44 5.72 136.41 5.76 135.13 489.04 157.16"/><polygon class="cls-68" points="488.99 158.03 488.95 159.31 5.67 137.28 5.72 136 488.99 158.03"/><polygon class="cls-69" points="488.95 158.9 488.9 160.18 5.63 138.15 5.67 136.87 488.95 158.9"/><polygon class="cls-70" points="488.9 159.72 488.86 161 5.58 138.98 5.63 137.7 488.9 159.72"/><polygon class="cls-71" points="488.9 160.59 488.81 161.87 5.54 139.85 5.63 138.57 488.9 160.59"/><polygon class="cls-72" points="488.86 161.46 488.81 162.74 5.54 140.72 5.58 139.44 488.86 161.46"/><polygon class="cls-73" points="488.81 162.28 488.77 163.57 5.49 141.54 5.54 140.26 488.81 162.28"/><polygon class="cls-74" points="488.77 163.16 488.72 164.44 5.45 142.41 5.49 141.13 488.77 163.16"/><polygon class="cls-75" points="488.72 164.03 488.68 165.31 5.4 143.28 5.45 142 488.72 164.03"/><polygon class="cls-76" points="488.68 164.85 488.63 166.13 5.36 144.11 5.4 142.82 488.68 164.85"/><polygon class="cls-77" points="488.68 165.72 488.59 167 5.31 144.98 5.4 143.69 488.68 165.72"/><polygon class="cls-78" points="488.63 166.59 488.54 167.87 5.26 145.85 5.36 144.56 488.63 166.59"/><polygon class="cls-79" points="488.59 167.41 488.54 168.7 5.26 146.67 5.31 145.39 488.59 167.41"/><polygon class="cls-80" points="488.54 168.28 488.5 169.57 5.22 147.54 5.26 146.26 488.54 168.28"/><polygon class="cls-81" points="488.5 169.15 488.45 170.44 5.17 148.41 5.22 147.13 488.5 169.15"/><polygon class="cls-82" points="488.45 169.98 488.4 171.26 5.13 149.24 5.17 147.95 488.45 169.98"/><polygon class="cls-83" points="488.45 170.85 488.36 172.13 5.08 150.1 5.17 148.82 488.45 170.85"/><polygon class="cls-84" points="488.4 171.72 488.31 173 5.04 150.97 5.13 149.69 488.4 171.72"/><polygon class="cls-85" points="488.36 172.54 488.31 173.82 5.04 151.8 5.08 150.52 488.36 172.54"/><polygon class="cls-86" points="488.31 173.41 488.27 174.69 4.99 152.67 5.04 151.39 488.31 173.41"/><polygon class="cls-87" points="488.27 174.28 488.22 175.56 4.95 153.49 4.99 152.21 488.27 174.28"/><polygon class="cls-88" points="488.22 175.11 488.18 176.39 4.9 154.36 4.95 153.08 488.22 175.11"/><polygon class="cls-89" points="488.18 175.98 488.13 177.26 4.86 155.23 4.9 153.95 488.18 175.98"/><polygon class="cls-90" points="488.18 176.85 488.09 178.13 4.81 156.06 4.9 154.78 488.18 176.85"/><polygon class="cls-91" points="488.13 177.67 488.09 178.95 4.81 156.93 4.86 155.65 488.13 177.67"/><polygon class="cls-92" points="488.09 178.54 488.04 179.82 4.77 157.8 4.81 156.52 488.09 178.54"/><polygon class="cls-93" points="488.04 179.41 488 180.69 4.72 158.62 4.77 157.34 488.04 179.41"/><polygon class="cls-94" points="488 180.24 487.95 181.52 4.67 159.49 4.72 158.21 488 180.24"/><polygon class="cls-95" points="487.95 181.1 487.91 182.39 4.63 160.36 4.67 159.08 487.95 181.1"/><polygon class="cls-96" points="487.95 181.97 487.86 183.26 4.58 161.19 4.67 159.9 487.95 181.97"/><polygon class="cls-96" points="487.91 182.8 487.82 184.08 4.54 162.06 4.63 160.77 487.91 182.8"/><polygon class="cls-97" points="487.86 183.67 487.82 184.95 4.54 162.93 4.58 161.64 487.86 183.67"/><polygon class="cls-98" points="487.82 184.54 487.77 185.82 4.49 163.75 4.54 162.47 487.82 184.54"/><polygon class="cls-98" points="487.77 185.36 487.73 186.65 4.45 164.62 4.49 163.34 487.77 185.36"/><polygon class="cls-99" points="487.73 186.23 487.68 187.51 4.4 165.49 4.45 164.21 487.73 186.23"/><polygon class="cls-100" points="487.73 187.1 487.63 188.38 4.36 166.31 4.45 165.03 487.73 187.1"/><polygon class="cls-101" points="487.68 187.93 487.59 189.21 4.31 167.19 4.4 165.9 487.68 187.93"/><polygon class="cls-102" points="487.63 188.8 487.59 190.08 4.31 168.06 4.36 166.77 487.63 188.8"/><polygon class="cls-103" points="487.59 189.67 487.54 190.95 4.27 168.88 4.31 167.6 487.59 189.67"/><polygon class="cls-104" points="487.54 190.49 487.5 191.77 4.22 169.75 4.27 168.47 487.54 190.49"/><polygon class="cls-105" points="487.5 191.36 487.45 192.64 4.18 170.62 4.22 169.34 487.5 191.36"/><polygon class="cls-106" points="487.45 192.23 487.41 193.51 4.13 171.44 4.18 170.16 487.45 192.23"/><polygon class="cls-107" points="487.45 193.06 487.36 194.34 4.08 172.31 4.18 171.03 487.45 193.06"/><polygon class="cls-108" points="487.41 193.93 487.36 195.21 4.08 173.18 4.13 171.9 487.41 193.93"/><polygon class="cls-109" points="487.36 194.75 487.32 196.03 4.04 174.01 4.08 172.72 487.36 194.75"/><polygon class="cls-110" points="487.32 195.62 487.27 196.9 4 174.88 4.04 173.59 487.32 195.62"/><polygon class="cls-111" points="487.27 196.49 487.23 197.77 3.95 175.75 4 174.47 487.27 196.49"/><polygon class="cls-112" points="487.23 197.31 487.18 198.6 3.9 176.57 3.95 175.29 487.23 197.31"/><polygon class="cls-113" points="487.23 198.18 487.14 199.47 3.86 177.44 3.95 176.16 487.23 198.18"/><polygon class="cls-114" points="487.18 199.05 487.09 200.34 3.81 178.31 3.9 177.03 487.18 199.05"/><polygon class="cls-115" points="487.14 199.88 487.09 201.16 3.81 179.14 3.86 177.85 487.14 199.88"/><polygon class="cls-116" points="487.09 200.75 487.05 202.03 3.77 180.01 3.81 178.72 487.09 200.75"/><polygon class="cls-117" points="487.05 201.62 487 202.9 3.72 180.88 3.77 179.59 487.05 201.62"/><polygon class="cls-118" points="487 202.44 486.95 203.72 3.68 181.7 3.72 180.42 487 202.44"/><polygon class="cls-119" points="486.95 203.31 486.91 204.59 3.63 182.57 3.72 181.29 486.95 203.31"/><polygon class="cls-120" points="486.95 204.18 486.86 205.47 3.59 183.44 3.68 182.16 486.95 204.18"/><polygon class="cls-121" points="486.91 205.01 486.86 206.29 3.59 184.26 3.63 182.98 486.91 205.01"/><polygon class="cls-122" points="486.86 205.88 486.82 207.16 3.54 185.13 3.59 183.85 486.86 205.88"/><polygon class="cls-123" points="486.82 206.75 486.77 208.03 3.5 186 3.54 184.72 486.82 206.75"/><polygon class="cls-124" points="486.77 207.57 486.73 208.85 3.45 186.83 3.5 185.55 486.77 207.57"/><polygon class="cls-125" points="486.73 208.44 486.68 209.72 3.4 187.7 3.45 186.42 486.73 208.44"/><polygon class="cls-126" points="486.73 209.31 486.64 210.59 3.36 188.57 3.45 187.29 486.73 209.31"/><polygon class="cls-127" points="486.68 210.13 486.59 211.42 3.36 189.39 3.4 188.11 486.68 210.13"/><polygon class="cls-128" points="486.64 211 486.59 212.29 3.31 190.26 3.36 188.98 486.64 211"/><polygon class="cls-129" points="486.59 211.88 486.55 213.16 3.27 191.13 3.31 189.85 486.59 211.88"/><polygon class="cls-130" points="486.55 212.7 486.5 213.98 3.22 191.96 3.27 190.68 486.55 212.7"/><polygon class="cls-131" points="486.5 213.57 486.45 214.85 3.18 192.83 3.22 191.54 486.5 213.57"/><polygon class="cls-132" points="486.5 214.44 486.41 215.72 3.13 193.7 3.22 192.41 486.5 214.44"/><polygon class="cls-133" points="486.45 215.26 486.37 216.55 3.09 194.52 3.18 193.24 486.45 215.26"/><polygon class="cls-134" points="486.41 216.13 486.37 217.42 3.09 195.39 3.13 194.11 486.41 216.13"/><polygon class="cls-135" points="486.37 217 486.32 218.29 3.04 196.26 3.09 194.98 486.37 217"/><polygon class="cls-136" points="486.32 217.83 486.27 219.11 3 197.09 3.04 195.8 486.32 217.83"/><polygon class="cls-137" points="486.27 218.7 486.23 219.98 2.95 197.96 3 196.67 486.27 218.7"/><polygon class="cls-138" points="486.23 219.57 486.18 220.85 2.91 198.82 3 197.54 486.23 219.57"/><polygon class="cls-139" points="486.23 220.39 486.14 221.67 2.86 199.65 2.95 198.37 486.23 220.39"/><polygon class="cls-140" points="486.18 221.26 486.14 222.54 2.86 200.52 2.91 199.24 486.18 221.26"/><polygon class="cls-141" points="486.14 222.13 486.09 223.41 2.82 201.39 2.86 200.11 486.14 222.13"/><polygon class="cls-142" points="486.09 222.96 486.05 224.24 2.77 202.21 2.82 200.93 486.09 222.96"/><polygon class="cls-143" points="486.05 223.83 486 225.11 2.73 203.08 2.77 201.8 486.05 223.83"/><polygon class="cls-144" points="486 224.7 485.96 225.98 2.68 203.95 2.73 202.67 486 224.7"/><polygon class="cls-145" points="486 225.52 485.91 226.8 2.63 204.78 2.73 203.5 486 225.52"/><polygon class="cls-146" points="485.96 226.39 485.87 227.67 2.63 205.65 2.68 204.37 485.96 226.39"/><polygon class="cls-147" points="485.91 227.26 485.87 228.54 2.59 206.52 2.63 205.24 485.91 227.26"/><polygon class="cls-148" points="485.87 228.09 485.82 229.37 2.54 207.34 2.59 206.06 485.87 228.09"/><polygon class="cls-149" points="485.82 228.96 485.77 230.24 2.5 208.21 2.54 206.93 485.82 228.96"/><polygon class="cls-150" points="485.77 229.82 485.73 231.11 2.45 209.08 2.5 207.8 485.77 229.82"/><polygon class="cls-151" points="485.77 230.65 485.69 231.93 2.41 209.91 2.5 208.62 485.77 230.65"/><polygon class="cls-152" points="485.73 231.52 485.64 232.8 2.36 210.78 2.45 209.49 485.73 231.52"/><polygon class="cls-153" points="485.69 232.39 485.64 233.67 2.36 211.65 2.41 210.36 485.69 232.39"/><polygon class="cls-154" points="485.64 233.21 485.59 234.5 2.32 212.47 2.36 211.19 485.64 233.21"/><polygon class="cls-155" points="485.59 234.08 485.55 235.37 2.27 213.34 2.32 212.06 485.59 234.08"/><polygon class="cls-156" points="485.55 234.95 485.5 236.24 2.23 214.21 2.27 212.93 485.55 234.95"/><polygon class="cls-157" points="485.5 235.78 485.46 237.06 2.18 215.03 2.27 213.75 485.5 235.78"/><polygon class="cls-158" points="485.5 236.65 485.41 237.93 2.14 215.91 2.23 214.62 485.5 236.65"/><polygon class="cls-159" points="485.46 237.52 485.41 238.8 2.14 216.78 2.18 215.49 485.46 237.52"/><polygon class="cls-160" points="485.41 238.34 485.37 239.62 2.09 217.6 2.14 216.32 485.41 238.34"/><polygon class="cls-161" points="485.37 239.21 485.32 240.49 2.04 218.47 2.09 217.19 485.37 239.21"/><polygon class="cls-162" points="485.32 240.08 485.28 241.36 2 219.34 2.04 218.06 485.32 240.08"/><polygon class="cls-163" points="485.28 240.91 485.23 242.19 1.96 220.16 2 218.88 485.28 240.91"/><polygon class="cls-164" points="485.28 241.78 485.19 243.06 1.91 221.03 2 219.75 485.28 241.78"/><polygon class="cls-165" points="485.23 242.65 485.14 243.93 1.91 221.9 1.96 220.62 485.23 242.65"/><polygon class="cls-166" points="485.19 243.47 485.14 244.75 1.86 222.73 1.91 221.44 485.19 243.47"/><polygon class="cls-167" points="485.14 244.34 485.1 245.62 1.82 223.6 1.86 222.31 485.14 244.34"/><polygon class="cls-168" points="485.1 245.21 485.05 246.49 1.77 224.47 1.82 223.19 485.1 245.21"/><polygon class="cls-169" points="485.05 246.03 485 247.32 1.73 225.29 1.77 224.01 485.05 246.03"/><polygon class="cls-170" points="485.05 246.9 484.96 248.19 1.68 226.16 1.77 224.88 485.05 246.9"/><polygon class="cls-171" points="485 247.77 484.91 249.06 1.64 227.03 1.73 225.75 485 247.77"/><polygon class="cls-172" points="484.96 248.6 484.91 249.88 1.64 227.86 1.68 226.57 484.96 248.6"/><polygon class="cls-173" points="484.91 249.47 484.87 250.75 1.59 228.73 1.64 227.44 484.91 249.47"/><polygon class="cls-174" points="484.87 250.34 484.82 251.62 1.55 229.6 1.59 228.31 484.87 250.34"/><polygon class="cls-175" points="484.82 251.16 484.78 252.44 1.5 230.42 1.55 229.14 484.82 251.16"/><polygon class="cls-176" points="484.78 252.03 484.73 253.31 1.46 231.29 1.55 230.01 484.78 252.03"/><polygon class="cls-177" points="484.78 252.9 484.69 254.19 1.41 232.16 1.5 230.88 484.78 252.9"/><polygon class="cls-178" points="484.73 253.73 484.69 255.01 1.41 232.98 1.46 231.7 484.73 253.73"/><polygon class="cls-179" points="484.69 254.6 484.64 255.88 1.36 233.85 1.41 232.57 484.69 254.6"/><polygon class="cls-180" points="484.64 255.47 484.6 256.75 1.32 234.72 1.36 233.44 484.64 255.47"/><polygon class="cls-181" points="484.6 256.29 484.55 257.57 1.27 235.55 1.32 234.27 484.6 256.29"/><polygon class="cls-182" points="484.55 257.16 484.51 258.44 1.23 236.42 1.27 235.14 484.55 257.16"/><polygon class="cls-183" points="484.55 258.03 484.46 259.31 1.18 237.24 1.27 236.01 484.55 258.03"/><polygon class="cls-184" points="484.51 258.86 484.42 260.14 1.18 238.11 1.23 236.83 484.51 258.86"/><polygon class="cls-185" points="484.46 259.73 484.42 261.01 1.14 238.98 1.18 237.7 484.46 259.73"/><polygon class="cls-186" points="484.42 260.6 484.37 261.88 1.09 239.81 1.14 238.53 484.42 260.6"/><polygon class="cls-187" points="484.37 261.42 484.32 262.7 1.05 240.68 1.09 239.4 484.37 261.42"/><polygon class="cls-188" points="484.32 262.29 484.28 263.57 1 241.55 1.05 240.26 484.32 262.29"/><polygon class="cls-189" points="484.32 263.16 484.23 264.44 0.96 242.37 1.05 241.09 484.32 263.16"/><polygon class="cls-190" points="484.28 263.98 484.19 265.27 0.91 243.24 1 241.96 484.28 263.98"/><polygon class="cls-191" points="484.23 264.85 484.19 266.14 0.91 244.11 0.96 242.83 484.23 264.85"/><polygon class="cls-192" points="484.19 265.72 484.14 267.01 0.87 244.94 0.91 243.65 484.19 265.72"/><polygon class="cls-193" points="484.14 266.55 484.1 267.83 0.82 245.81 0.87 244.52 484.14 266.55"/><polygon class="cls-194" points="484.1 267.42 484.05 268.7 0.78 246.68 0.82 245.39 484.1 267.42"/><polygon class="cls-195" points="484.05 268.29 484.01 269.57 0.73 247.5 0.78 246.22 484.05 268.29"/><polygon class="cls-196" points="484.05 269.11 483.96 270.39 0.69 248.37 0.78 247.09 484.05 269.11"/><polygon class="cls-197" points="484.01 269.98 483.96 271.26 0.69 249.24 0.73 247.96 484.01 269.98"/><polygon class="cls-198" points="483.96 270.85 483.92 272.13 0.64 250.06 0.69 248.78 483.96 270.85"/><polygon class="cls-199" points="483.92 271.68 483.87 272.96 0.59 250.93 0.64 249.65 483.92 271.68"/><polygon class="cls-200" points="483.87 272.55 483.83 273.83 0.55 251.8 0.59 250.52 483.87 272.55"/><polygon class="cls-201" points="483.83 273.42 483.78 274.7 0.5 252.63 0.55 251.35 483.83 273.42"/><polygon class="cls-202" points="483.83 274.24 483.74 275.52 0.46 253.5 0.55 252.22 483.83 274.24"/><polygon class="cls-203" points="483.78 275.11 483.69 276.39 0.41 254.37 0.5 253.09 483.78 275.11"/><polygon class="cls-204" points="483.74 275.98 483.69 277.26 0.41 255.19 0.46 253.91 483.74 275.98"/><polygon class="cls-205" points="483.69 276.81 483.64 278.09 0.37 256.06 0.41 254.78 483.69 276.81"/><polygon class="cls-206" points="483.64 277.68 483.6 278.96 0.32 256.93 0.37 255.65 483.64 277.68"/><polygon class="cls-207" points="483.6 278.55 483.55 279.78 0.28 257.76 0.32 256.47 483.6 278.55"/><polygon class="cls-208" points="483.6 279.37 483.51 280.65 0.23 258.63 0.32 257.34 483.6 279.37"/><polygon class="cls-209" points="483.55 280.24 483.46 281.52 0.19 259.5 0.28 258.21 483.55 280.24"/><polygon class="cls-210" points="483.51 281.06 483.46 282.35 0.19 260.32 0.23 259.04 483.51 281.06"/><polygon class="cls-211" points="483.46 281.93 483.42 283.21 0.14 261.19 0.19 259.91 483.46 281.93"/><polygon class="cls-212" points="483.42 282.8 483.37 284.08 0.1 262.06 0.14 260.78 483.42 282.8"/><polygon class="cls-213" points="483.37 283.63 483.33 284.91 0.05 262.88 0.1 261.6 483.37 283.63"/><polygon class="cls-214" points="483.33 284.5 483.28 285.78 0.01 263.75 0.05 262.47 483.33 284.5"/><polygon class="cls-214" points="483.33 285.37 483.28 286.19 0.01 264.17 0.05 263.34 483.33 285.37"/></g><path class="cls-1" d="M315,381.59c52.41-64.15,189.6-80.5,236.56-88.56,5-1.46,5.13-2,2.41-4.53l-88.59-83.84c-59.34,12-113.79,21.66-149.47,37-27.7-15.93-99-32.37-151.51-37l-89,84.21c-3,2.83,1.32,3.61,1.68,3.61C97.9,294.63,271.89,317.25,315,381.59Z" transform="translate(-68.83 -106.2)"/><path class="cls-215" d="M116.26,272.75c88,11.67,117.23,21.47,183.61,60.3" transform="translate(-68.83 -106.2)"/><path class="cls-215" d="M139,251.09c64.6,8.56,97.51,16.12,136.68,34.89" transform="translate(-68.83 -106.2)"/><path class="cls-215" d="M157.74,229.52c56.58,7.51,88.86,14.2,122.31,28.35" transform="translate(-68.83 -106.2)"/><path class="cls-215" d="M511.49,274.21c-88,11.68-117.24,21.48-183.61,60.31" transform="translate(-68.83 -106.2)"/><path class="cls-215" d="M489.46,251.09c-64.6,8.56-97.52,16.12-136.69,34.89" transform="translate(-68.83 -106.2)"/><path class="cls-215" d="M470.74,229.52c-56.58,7.51-88.86,14.2-122.27,28.35" transform="translate(-68.83 -106.2)"/><path class="cls-214" d="M315,356.4c52.41-64.19,189.6-80.54,236.56-88.6,5-1.46,5.13-2,2.41-4.53l-88.59-83.84C406,191.38,351.55,201.09,315.87,216.38c-27.7-15.93-99-32.37-151.51-36.95l-89,84.21c-3,2.83,1.32,3.61,1.68,3.61C97.9,269.4,271.89,292.07,315,356.4Z" transform="translate(-68.83 -106.2)"/><path class="cls-216" d="M315,356.4c52.41-64.19,189.6-80.54,236.56-88.6,5-1.46,5.13-2,2.41-4.53l-88.59-83.84C406,191.38,351.55,201.09,315.87,216.38c-27.7-15.93-99-32.37-151.51-36.95l-89,84.21c-3,2.83,1.32,3.61,1.68,3.61C97.9,269.4,271.89,292.07,315,356.4Zm222-84.84c-56.08,8.93-173.59,27.7-221,85.67l-.27.27a1.21,1.21,0,0,1-1.77-.36c-15.05-22.44-46.42-39.84-81.6-53C167.8,280,90.64,270.05,77,268.63h-.09a8,8,0,0,1-2.09-.64,3.7,3.7,0,0,1-1.31-1.06c-.05,0-.05-.09-.09-.14a2.66,2.66,0,0,1-.23-2.38,5.26,5.26,0,0,1,1.31-1.78l88.95-84.16a1.34,1.34,0,0,1,1-.37c27,2.34,59,7.83,87.5,14.79,26.7,6.5,50.32,14.29,64,22,31.6-13.42,77.52-22.53,128.48-32.65,6.57-1.28,13.24-2.61,20.63-4.07a1.18,1.18,0,0,1,1.13.32l88.59,83.79c1.86,1.74,2.67,2.89,2,4.31-.55,1.05-2,1.69-4.81,2.51,0,0-.13.05-.18.05-4.49.78-9.34,1.56-14.82,2.43Z" transform="translate(-68.83 -106.2)"/><path class="cls-217" d="M116.26,246.78c88,11.68,117.23,21.43,183.61,60.31" transform="translate(-68.83 -106.2)"/><path class="cls-217" d="M139,225.13c64.6,8.56,97.51,16.11,136.68,34.89" transform="translate(-68.83 -106.2)"/><path class="cls-217" d="M157.74,203.51c56.58,7.51,88.86,14.24,122.31,28.39" transform="translate(-68.83 -106.2)"/><path class="cls-217" d="M511.49,248.25c-88,11.68-117.24,21.48-183.61,60.3" transform="translate(-68.83 -106.2)"/><path class="cls-217" d="M489.46,225.13c-64.6,8.56-97.52,16.11-136.69,34.89" transform="translate(-68.83 -106.2)"/><path class="cls-217" d="M470.74,203.51c-56.58,7.51-88.86,14.24-122.27,28.39" transform="translate(-68.83 -106.2)"/><polygon class="cls-3" points="245.77 249.33 246.99 90.4 247.18 90.4 245.95 249.33 245.77 249.33"/><g class="cls-218"><polygon class="cls-219" points="110.58 149.33 111.21 148.55 271.2 279.87 270.52 280.7 110.58 149.33"/><polygon class="cls-219" points="110.94 148.91 111.85 147.77 271.79 279.14 270.88 280.24 110.94 148.91"/><polygon class="cls-219" points="111.53 148.14 112.44 147.04 272.38 278.36 271.47 279.51 111.53 148.14"/><polygon class="cls-219" points="112.12 147.4 113.07 146.26 273.02 277.63 272.11 278.73 112.12 147.4"/><polygon class="cls-219" points="112.75 146.63 113.66 145.53 273.61 276.85 272.7 278 112.75 146.63"/><polygon class="cls-219" points="113.34 145.89 114.25 144.75 274.19 276.12 273.29 277.26 113.34 145.89"/><polygon class="cls-219" points="113.98 145.16 114.89 144.01 274.83 275.38 273.92 276.48 113.98 145.16"/><polygon class="cls-219" points="114.57 144.38 115.47 143.28 275.42 274.61 274.51 275.75 114.57 144.38"/><polygon class="cls-219" points="115.16 143.65 116.06 142.5 276.01 273.87 275.1 274.97 115.16 143.65"/><polygon class="cls-219" points="115.79 142.87 116.7 141.77 276.64 273.1 275.74 274.24 115.79 142.87"/><polygon class="cls-219" points="116.38 142.14 117.29 140.99 277.23 272.36 276.32 273.51 116.38 142.14"/><polygon class="cls-219" points="116.97 141.41 117.88 140.26 277.87 271.58 276.96 272.73 116.97 141.41"/><polygon class="cls-219" points="117.61 140.63 118.51 139.53 278.46 270.85 277.55 272 117.61 140.63"/><polygon class="cls-219" points="118.19 139.89 119.1 138.75 279.05 270.12 278.14 271.22 118.19 139.89"/><polygon class="cls-219" points="118.78 139.12 119.69 138.02 279.68 269.34 278.77 270.49 118.78 139.12"/><polygon class="cls-219" points="119.42 138.38 120.33 137.24 280.27 268.61 279.36 269.71 119.42 138.38"/><polygon class="cls-219" points="120.01 137.6 120.92 136.51 280.86 267.83 279.95 268.98 120.01 137.6"/><polygon class="cls-219" points="120.6 136.87 121.5 135.73 281.49 267.1 280.59 268.24 120.6 136.87"/><polygon class="cls-219" points="121.23 136.14 122.14 135 282.08 266.37 281.18 267.46 121.23 136.14"/><polygon class="cls-219" points="121.82 135.36 122.73 134.26 282.67 265.59 281.77 266.73 121.82 135.36"/><polygon class="cls-220" points="122.41 134.63 123.32 133.48 283.31 264.85 282.4 265.95 122.41 134.63"/><polygon class="cls-220" points="123.05 133.85 123.95 132.75 283.9 264.07 282.99 265.22 123.05 133.85"/><polygon class="cls-220" points="123.64 133.12 124.54 131.97 284.49 263.34 283.58 264.44 123.64 133.12"/><polygon class="cls-220" points="124.22 132.38 125.18 131.24 285.12 262.56 284.21 263.71 124.22 132.38"/><polygon class="cls-220" points="124.86 131.61 125.77 130.46 285.71 261.83 284.8 262.98 124.86 131.61"/><polygon class="cls-220" points="125.45 130.87 126.36 129.73 286.3 261.1 285.39 262.2 125.45 130.87"/><polygon class="cls-220" points="126.08 130.09 126.99 129 286.93 260.32 286.03 261.46 126.08 130.09"/><polygon class="cls-220" points="126.67 129.36 127.58 128.22 287.52 259.59 286.62 260.69 126.67 129.36"/><polygon class="cls-220" points="127.26 128.58 128.17 127.48 288.11 258.81 287.21 259.95 127.26 128.58"/><polygon class="cls-220" points="127.9 127.85 128.8 126.71 288.75 258.08 287.84 259.22 127.9 127.85"/><polygon class="cls-220" points="128.49 127.12 129.39 125.97 289.34 257.34 288.43 258.44 128.49 127.12"/><polygon class="cls-220" points="129.08 126.34 129.98 125.24 289.97 256.57 289.02 257.71 129.08 126.34"/><polygon class="cls-220" points="129.71 125.61 130.62 124.46 290.56 255.83 289.65 256.93 129.71 125.61"/><polygon class="cls-220" points="130.3 124.83 131.21 123.73 291.15 255.06 290.24 256.2 130.3 124.83"/><polygon class="cls-220" points="130.89 124.1 131.8 122.95 291.79 254.32 290.88 255.42 130.89 124.1"/><polygon class="cls-220" points="131.52 123.32 132.43 122.22 292.37 253.54 291.47 254.69 131.52 123.32"/><polygon class="cls-220" points="132.11 122.59 133.02 121.44 292.96 252.81 292.06 253.96 132.11 122.59"/><polygon class="cls-220" points="132.7 121.85 133.61 120.71 293.6 252.08 292.69 253.18 132.7 121.85"/><polygon class="cls-220" points="133.34 121.08 134.24 119.98 294.19 251.3 293.28 252.44 133.34 121.08"/><polygon class="cls-220" points="133.93 120.34 134.83 119.2 294.78 250.57 293.87 251.67 133.93 120.34"/><polygon class="cls-220" points="134.52 119.56 135.42 118.47 295.41 249.79 294.5 250.93 134.52 119.56"/><polygon class="cls-220" points="135.15 118.83 136.06 117.69 296 249.06 295.09 250.2 135.15 118.83"/><polygon class="cls-220" points="135.74 118.1 136.65 116.95 296.59 248.28 295.68 249.42 135.74 118.1"/><polygon class="cls-220" points="136.33 117.32 137.28 116.17 297.23 247.54 296.32 248.69 136.33 117.32"/><polygon class="cls-220" points="136.96 116.59 137.87 115.44 297.81 246.81 296.91 247.91 136.96 116.59"/><polygon class="cls-220" points="137.55 115.81 138.46 114.71 298.4 246.03 297.5 247.18 137.55 115.81"/><polygon class="cls-220" points="138.19 115.08 139.09 113.93 299.04 245.3 298.13 246.4 138.19 115.08"/><polygon class="cls-220" points="138.78 114.3 139.68 113.2 299.63 244.52 298.72 245.67 138.78 114.3"/><polygon class="cls-220" points="139.37 113.56 140.27 112.42 300.22 243.79 299.31 244.94 139.37 113.56"/><polygon class="cls-220" points="140 112.83 140.91 111.69 300.85 243.06 299.94 244.16 140 112.83"/><polygon class="cls-220" points="140.59 112.05 141.5 110.95 301.44 242.28 300.53 243.42 140.59 112.05"/><polygon class="cls-220" points="141.18 111.32 142.09 110.18 302.08 241.55 301.12 242.65 141.18 111.32"/><polygon class="cls-220" points="141.81 110.54 142.72 109.44 302.67 240.77 301.76 241.91 141.81 110.54"/><polygon class="cls-220" points="142.4 109.81 143.31 108.67 303.25 240.04 302.35 241.13 142.4 109.81"/><polygon class="cls-220" points="142.99 109.08 143.9 107.93 303.89 239.26 302.98 240.4 142.99 109.08"/><polygon class="cls-220" points="143.63 108.3 144.53 107.16 304.48 238.53 303.57 239.67 143.63 108.3"/><polygon class="cls-221" points="144.22 107.57 145.12 106.42 305.07 237.79 304.16 238.89 144.22 107.57"/><polygon class="cls-221" points="144.81 106.79 145.71 105.69 305.7 237.01 304.8 238.16 144.81 106.79"/><polygon class="cls-221" points="145.44 106.06 146.35 104.91 306.29 236.28 305.38 237.38 145.44 106.06"/><polygon class="cls-221" points="146.03 105.28 146.94 104.18 306.88 235.5 305.98 236.65 146.03 105.28"/><polygon class="cls-221" points="146.62 104.55 147.53 103.4 307.52 234.77 306.61 235.91 146.62 104.55"/><polygon class="cls-221" points="147.25 103.81 148.16 102.67 308.11 233.99 307.2 235.14 147.25 103.81"/><polygon class="cls-221" points="147.84 103.03 148.75 101.94 308.69 233.26 307.79 234.4 147.84 103.03"/><polygon class="cls-221" points="148.43 102.3 149.34 101.16 309.33 232.53 308.42 233.63 148.43 102.3"/><polygon class="cls-221" points="149.07 101.52 149.97 100.42 309.92 231.75 309.01 232.89 149.07 101.52"/><polygon class="cls-221" points="149.66 100.79 150.56 99.64 310.51 231.01 309.6 232.11 149.66 100.79"/><polygon class="cls-221" points="150.29 100.01 151.2 98.91 311.14 230.24 310.24 231.38 150.29 100.01"/><polygon class="cls-221" points="150.88 99.28 151.79 98.13 311.73 229.5 310.83 230.65 150.88 99.28"/><polygon class="cls-221" points="151.47 98.55 152.38 97.4 312.32 228.77 311.42 229.87 151.47 98.55"/><polygon class="cls-221" points="152.11 97.77 153.01 96.67 312.96 227.99 312.05 229.14 152.11 97.77"/><polygon class="cls-221" points="152.69 97.03 153.6 95.89 313.55 227.26 312.64 228.36 152.69 97.03"/><polygon class="cls-221" points="153.28 96.26 154.19 95.16 314.18 226.48 313.23 227.63 153.28 96.26"/><polygon class="cls-221" points="153.92 95.52 154.83 94.38 314.77 225.75 313.86 226.89 153.92 95.52"/><polygon class="cls-221" points="154.51 94.79 155.41 93.65 315.36 224.97 314.45 226.12 154.51 94.79"/><polygon class="cls-221" points="155.1 94.01 156 92.87 315.99 224.24 315.09 225.38 155.1 94.01"/><polygon class="cls-221" points="155.73 93.28 156.64 92.14 316.58 223.51 315.68 224.6 155.73 93.28"/><polygon class="cls-221" points="156.32 92.5 157.23 91.4 317.17 222.73 316.27 223.87 156.32 92.5"/><polygon class="cls-221" points="156.91 91.77 157.82 90.63 317.81 222 316.9 223.09 156.91 91.77"/><polygon class="cls-221" points="157.55 90.99 158.45 89.89 318.4 221.22 317.49 222.36 157.55 90.99"/><polygon class="cls-221" points="158.14 90.26 159.04 89.11 318.99 220.48 318.08 221.63 158.14 90.26"/><polygon class="cls-221" points="158.72 89.53 159.63 88.38 319.62 219.75 318.71 220.85 158.72 89.53"/><polygon class="cls-221" points="159.36 88.75 160.27 87.65 320.21 218.97 319.3 220.12 159.36 88.75"/><polygon class="cls-221" points="159.95 88.02 160.86 86.87 320.8 218.24 319.89 219.34 159.95 88.02"/><polygon class="cls-221" points="160.54 87.24 161.44 86.14 321.43 217.46 320.53 218.61 160.54 87.24"/><polygon class="cls-221" points="161.17 86.5 162.08 85.36 322.02 216.73 321.12 217.83 161.17 86.5"/><polygon class="cls-221" points="161.76 85.72 162.67 84.63 322.61 215.95 321.71 217.09 161.76 85.72"/><polygon class="cls-221" points="162.4 84.99 163.3 83.85 323.25 215.22 322.34 216.36 162.4 84.99"/><polygon class="cls-221" points="162.99 84.26 163.89 83.11 323.84 214.49 322.93 215.58 162.99 84.26"/><polygon class="cls-221" points="163.58 83.48 164.48 82.38 324.43 213.71 323.52 214.85 163.58 83.48"/><polygon class="cls-221" points="164.21 82.75 165.12 81.6 325.06 212.97 324.15 214.07 164.21 82.75"/><polygon class="cls-221" points="164.8 81.97 165.71 80.87 325.65 212.2 324.74 213.34 164.8 81.97"/><polygon class="cls-221" points="165.39 81.24 166.3 80.09 326.29 211.46 325.33 212.61 165.39 81.24"/><polygon class="cls-222" points="166.02 80.5 166.93 79.36 326.87 210.69 325.97 211.83 166.02 80.5"/><polygon class="cls-222" points="166.61 79.73 167.52 78.63 327.46 209.95 326.56 211.1 166.61 79.73"/><polygon class="cls-222" points="167.2 78.99 168.11 77.85 328.1 209.22 327.19 210.32 167.2 78.99"/><polygon class="cls-222" points="167.84 78.22 168.74 77.12 328.69 208.44 327.78 209.59 167.84 78.22"/><polygon class="cls-222" points="168.43 77.48 169.33 76.34 329.28 207.71 328.37 208.81 168.43 77.48"/><polygon class="cls-222" points="169.02 76.7 169.92 75.61 329.91 206.93 329 208.07 169.02 76.7"/><polygon class="cls-222" points="169.65 75.97 170.56 74.83 330.5 206.2 329.6 207.34 169.65 75.97"/><polygon class="cls-222" points="170.24 75.24 171.15 74.09 331.09 205.47 330.18 206.56 170.24 75.24"/><polygon class="cls-222" points="170.83 74.46 171.74 73.36 331.73 204.69 330.82 205.83 170.83 74.46"/><polygon class="cls-222" points="171.46 73.73 172.37 72.58 332.31 203.95 331.41 205.05 171.46 73.73"/><polygon class="cls-222" points="172.05 72.95 172.96 71.85 332.9 203.18 332 204.32 172.05 72.95"/><polygon class="cls-222" points="172.64 72.22 173.55 71.07 333.54 202.44 332.63 203.54 172.64 72.22"/><polygon class="cls-222" points="173.28 71.48 174.18 70.34 334.13 201.66 333.22 202.81 173.28 71.48"/><polygon class="cls-222" points="173.87 70.71 174.77 69.56 334.72 200.93 333.81 202.08 173.87 70.71"/><polygon class="cls-222" points="174.5 69.97 175.41 68.83 335.35 200.2 334.44 201.3 174.5 69.97"/><polygon class="cls-222" points="175.09 69.19 176 68.1 335.94 199.42 335.04 200.56 175.09 69.19"/><polygon class="cls-222" points="175.68 68.46 176.59 67.32 336.53 198.69 335.62 199.79 175.68 68.46"/><polygon class="cls-222" points="176.31 67.68 177.22 66.58 337.17 197.91 336.26 199.05 176.31 67.68"/><polygon class="cls-222" points="176.91 66.95 177.81 65.81 337.75 197.18 336.85 198.32 176.91 66.95"/><polygon class="cls-222" points="177.49 66.22 178.4 65.07 338.39 196.44 337.44 197.54 177.49 66.22"/><polygon class="cls-222" points="178.13 65.44 179.03 64.34 338.98 195.67 338.07 196.81 178.13 65.44"/><polygon class="cls-222" points="178.72 64.71 179.63 63.56 339.57 194.93 338.66 196.03 178.72 64.71"/><polygon class="cls-222" points="179.31 63.93 180.21 62.83 340.2 194.16 339.3 195.3 179.31 63.93"/><polygon class="cls-222" points="179.94 63.2 180.85 62.05 340.79 193.42 339.89 194.52 179.94 63.2"/><polygon class="cls-222" points="180.53 62.42 181.44 61.32 341.38 192.64 340.48 193.79 180.53 62.42"/><polygon class="cls-222" points="181.12 61.69 182.03 60.54 342.02 191.91 341.11 193.06 181.12 61.69"/><polygon class="cls-222" points="181.75 60.95 182.66 59.81 342.61 191.18 341.7 192.28 181.75 60.95"/><polygon class="cls-222" points="182.34 60.17 183.25 59.08 343.19 190.4 342.29 191.54 182.34 60.17"/><polygon class="cls-222" points="182.93 59.44 183.84 58.3 343.83 189.67 342.92 190.77 182.93 59.44"/><polygon class="cls-222" points="183.57 58.66 184.48 57.56 344.42 188.89 343.51 190.03 183.57 58.66"/><polygon class="cls-222" points="184.16 57.93 185.06 56.79 345.01 188.16 344.1 189.3 184.16 57.93"/><polygon class="cls-222" points="184.75 57.2 185.65 56.05 345.64 187.38 344.74 188.52 184.75 57.2"/><polygon class="cls-222" points="185.38 56.42 186.29 55.27 346.23 186.65 345.33 187.79 185.38 56.42"/><polygon class="cls-222" points="185.97 55.69 186.88 54.54 346.82 185.91 345.92 187.01 185.97 55.69"/><polygon class="cls-222" points="186.61 54.91 187.51 53.81 347.46 185.13 346.55 186.28 186.61 54.91"/><polygon class="cls-222" points="187.2 54.18 188.1 53.03 348.05 184.4 347.14 185.5 187.2 54.18"/><polygon class="cls-222" points="187.78 53.4 188.69 52.3 348.63 183.62 347.73 184.77 187.78 53.4"/><polygon class="cls-214" points="188.42 52.66 189.33 51.52 349.27 182.89 348.36 184.03 188.42 52.66"/><polygon class="cls-214" points="189.01 51.93 189.92 50.79 349.86 182.16 348.95 183.26 189.01 51.93"/><polygon class="cls-214" points="189.6 51.15 190.5 50.05 350.49 181.38 349.54 182.52 189.6 51.15"/><polygon class="cls-214" points="190.23 50.42 191.14 49.28 351.08 180.65 350.18 181.75 190.23 50.42"/><polygon class="cls-214" points="190.82 49.64 191.73 48.54 351.67 179.87 350.77 181.01 190.82 49.64"/><polygon class="cls-214" points="191.41 48.91 192.32 47.77 352.31 179.14 351.4 180.24 191.41 48.91"/><polygon class="cls-214" points="192.05 48.18 192.95 47.03 352.9 178.36 351.99 179.5 192.05 48.18"/><polygon class="cls-214" points="192.64 47.4 193.54 46.26 353.49 177.63 352.58 178.77 192.64 47.4"/><polygon class="cls-214" points="193.22 46.67 194.13 45.52 354.12 176.89 353.21 177.99 193.22 46.67"/><polygon class="cls-214" points="193.86 45.89 194.77 44.79 354.71 176.11 353.8 177.26 193.86 45.89"/><polygon class="cls-214" points="194.45 45.16 195.36 44.01 355.3 175.38 354.39 176.48 194.45 45.16"/><polygon class="cls-214" points="195.04 44.38 195.94 43.28 355.94 174.6 355.03 175.75 195.04 44.38"/><polygon class="cls-222" points="195.67 43.65 196.58 42.5 356.52 173.87 355.62 175.01 195.67 43.65"/><polygon class="cls-222" points="196.26 42.91 197.17 41.77 357.11 173.09 356.21 174.24 196.26 42.91"/><polygon class="cls-222" points="196.85 42.13 197.76 41.03 357.75 172.36 356.84 173.5 196.85 42.13"/><polygon class="cls-222" points="197.49 41.4 198.39 40.26 358.34 171.63 357.43 172.72 197.49 41.4"/><polygon class="cls-222" points="198.08 40.62 198.98 39.52 358.93 170.85 358.02 171.99 198.08 40.62"/><polygon class="cls-222" points="198.71 39.89 199.62 38.74 359.56 170.12 358.65 171.21 198.71 39.89"/><polygon class="cls-222" points="199.3 39.11 200.21 38.01 360.15 169.34 359.24 170.48 199.3 39.11"/><polygon class="cls-222" points="199.89 38.38 200.8 37.23 360.74 168.6 359.83 169.75 199.89 38.38"/><polygon class="cls-222" points="200.52 37.65 201.43 36.5 361.38 167.87 360.47 168.97 200.52 37.65"/><polygon class="cls-222" points="201.11 36.87 202.02 35.77 361.96 167.09 361.06 168.24 201.11 36.87"/><polygon class="cls-222" points="201.7 36.13 202.61 34.99 362.6 166.36 361.65 167.46 201.7 36.13"/><polygon class="cls-222" points="202.34 35.36 203.24 34.26 363.19 165.58 362.28 166.73 202.34 35.36"/><polygon class="cls-222" points="202.93 34.62 203.83 33.48 363.78 164.85 362.87 165.99 202.93 34.62"/><polygon class="cls-222" points="203.52 33.89 204.42 32.75 364.41 164.07 363.51 165.22 203.52 33.89"/><polygon class="cls-222" points="204.15 33.11 205.06 31.97 365 163.34 364.1 164.48 204.15 33.11"/><polygon class="cls-222" points="204.74 32.38 205.65 31.24 365.59 162.61 364.68 163.71 204.74 32.38"/><polygon class="cls-222" points="205.33 31.6 206.24 30.5 366.23 161.83 365.32 162.97 205.33 31.6"/><polygon class="cls-222" points="205.97 30.87 206.87 29.73 366.81 161.09 365.91 162.19 205.97 30.87"/><polygon class="cls-222" points="206.55 30.09 207.46 28.99 367.4 160.32 366.5 161.46 206.55 30.09"/><polygon class="cls-222" points="207.14 29.36 208.05 28.21 368.04 159.58 367.13 160.73 207.14 29.36"/><polygon class="cls-222" points="207.78 28.63 208.69 27.48 368.63 158.85 367.72 159.95 207.78 28.63"/><polygon class="cls-222" points="208.37 27.85 209.27 26.75 369.22 158.07 368.31 159.22 208.37 27.85"/><polygon class="cls-222" points="208.96 27.11 209.86 25.97 369.85 157.34 368.95 158.44 208.96 27.11"/><polygon class="cls-222" points="209.59 26.34 210.5 25.24 370.44 156.56 369.54 157.71 209.59 26.34"/><polygon class="cls-214" points="210.18 25.6 211.09 24.46 371.03 155.83 370.13 156.93 210.18 25.6"/><polygon class="cls-214" points="210.82 24.82 211.72 23.73 371.67 155.05 370.76 156.19 210.82 24.82"/><polygon class="cls-214" points="211.41 24.09 212.31 22.95 372.25 154.32 371.35 155.46 211.41 24.09"/><polygon class="cls-214" points="211.99 23.36 212.9 22.21 372.85 153.59 371.94 154.68 211.99 23.36"/><polygon class="cls-214" points="212.63 22.58 213.54 21.48 373.48 152.81 372.57 153.95 212.63 22.58"/><polygon class="cls-214" points="213.22 21.85 214.13 20.7 374.07 152.07 373.16 153.17 213.22 21.85"/><polygon class="cls-214" points="213.81 21.07 214.71 19.97 374.66 151.3 373.75 152.44 213.81 21.07"/><polygon class="cls-214" points="214.44 20.34 215.35 19.19 375.29 150.56 374.39 151.71 214.44 20.34"/><polygon class="cls-214" points="215.03 19.61 215.94 18.46 375.88 149.78 374.98 150.93 215.03 19.61"/><polygon class="cls-214" points="215.62 18.83 216.53 17.68 376.52 149.05 375.61 150.2 215.62 18.83"/><polygon class="cls-214" points="216.26 18.09 217.16 16.95 377.11 148.32 376.2 149.42 216.26 18.09"/><polygon class="cls-214" points="216.84 17.32 217.75 16.22 377.7 147.54 376.79 148.69 216.84 17.32"/><polygon class="cls-214" points="217.43 16.58 218.34 15.44 378.33 146.81 377.42 147.91 217.43 16.58"/><polygon class="cls-214" points="218.07 15.8 218.98 14.71 378.92 146.03 378.01 147.18 218.07 15.8"/><polygon class="cls-214" points="218.66 15.07 219.56 13.93 379.51 145.3 378.6 146.44 218.66 15.07"/><polygon class="cls-214" points="219.25 14.34 220.16 13.19 380.14 144.56 379.24 145.66 219.25 14.34"/><polygon class="cls-214" points="219.88 13.56 220.79 12.46 380.73 143.79 379.83 144.93 219.88 13.56"/><polygon class="cls-214" points="220.47 12.83 221.38 11.68 381.32 143.05 380.42 144.15 220.47 12.83"/><polygon class="cls-214" points="221.06 12.05 230.81 0.01 390.75 131.33 381.05 143.42 221.06 12.05"/></g><path class="cls-1" d="M390,183c21.31,20.06,34.32,48.58,35.95,80.86.41,7.79-.14,8.93-1.22,16.63-5.67,7.32-90.68,32.05-103.14,32.6-21,.14-92.08-17.31-114.93-35.17-.13-1.56-1.22-2-1.27-3.48-1.63-32.23,7.66-60.72,26.8-82.92s46.37-36.77,77.2-38.42S368.78,163,390,183Z" transform="translate(-68.83 -106.2)"/><path class="cls-223" d="M425.4,232.77a15.37,15.37,0,0,1-3.63-1.42l-2,3.94a19.22,19.22,0,0,0,4.53,1.74Zm21.22-16.85a13.45,13.45,0,0,1-.37,3.8l4.31,1a18.55,18.55,0,0,0,.41-5ZM445,223.34a19.6,19.6,0,0,1-2.14,3.3l3.36,2.84a20.77,20.77,0,0,0,2.67-4.12Zm-4.95,6a24,24,0,0,1-3.31,2.11l1.91,4a23.55,23.55,0,0,0,4.08-2.61Zm-7,3.44a15.56,15.56,0,0,1-3.85.41v4.44a21.67,21.67,0,0,0,4.85-.55Z" transform="translate(-68.83 -106.2)"/><path class="cls-224" d="M309.89,152.64a109.58,109.58,0,0,1,79.6,28.25,110.74,110.74,0,0,1,36.32,76.84c.18,3.71.18,7.46,0,11.13-.09,2.1-.23,4.21-.46,6.27-.36,3.2,0,5-2.81,6.59-23.16,13.14-66.05,29.9-101.91,31.51-36.36,1.51-66.73-6.28-113-33.48l-.27-.13c-3-1.7-2-6.28-2.27-10a111.45,111.45,0,0,1,28.42-80.27,110.28,110.28,0,0,1,76.4-36.68Z" transform="translate(-68.83 -106.2)"/><path class="cls-214" d="M260.56,170.87c9.29,5.58-12.78,7,22.89,11.9,5.31.73,9.48-3,12.2.41,3.58,4.49,3.17,5.68,6.48,6.87,11.84,4.31,37-11.72,38.9-13.19s.05-5.45,1.27-6,4.62,2.2,6.35.09c2.72-3.34-1.41-4.35,1.13-10.48A107.79,107.79,0,0,1,388,182.91c.73.64,1.45,1.33,2.18,2,1.09,2.57,1.72,5.91-1.22,7.56-5.08,2.84-9.43.64-10.75,4.07s.36,3.21-4.12,3.85-6,0-5.85,4.44c.22,10.17-2.9,21,.45,20.88,6.08-.18,8.3-2.52,7.57-.14s1.14,8.48-2.72,10.86-7.8.55-7.25,6.59,3.08,5.4,6.16,6.64,2.23,6.46,4.76,8.29,6.17,4.58,8.21,1.1c8.79-14.93,14.78-15.76,15.91-23.22.32-2.33-1.45-7.28,2.5-3.2,3.62,3.7,13.37,13.27,8.25,19.55-2.45,3-6.35,4-2.36,4.12s6.21.82,7.21-2.2c1.9-5.54-2.5-8.38,5.08-9.39.54,3.35,1,6.74,1.26,10.17a28.7,28.7,0,0,1-3.08,3.2c-1.58,1.24-3.58.6-4.62,1.42-1.32,1.06-5.35,9.94-13.33,4.17-1.32-1-3.9-3.25-5.49,2.66s-2.49,8.1-4.8,15.75c-1.95,6.55-7.35,9.16-7.8,12.32C364,302.28,342.75,309,321,310A136.07,136.07,0,0,1,297,308.83a93.48,93.48,0,0,0-8.66-14.2c-4.62-5.81-3,.42-12.06-.13s-6.12-.69-10.7-1.24-3.94.6-5.12-2.7-1.86-4.17-4.4-7.74c-3.81-5.54,12.33-9.48,18.27-10.67,6.3-1.28-.68,8.84,9.89,5.91,2.31-.64.49-3.76-3.09-7.83s-3.85-5.08-4.35-9.85,5-6.91,6.8-12.31c.91-2.61,4.26-.6,7.44-1.33,3.49-.83,5.57-4.85,6.89-6.18,5.48-5.31-12.88-29.17-20.27-24.45-3.22,2.06-3.72,2-3.63,4.3s-1.49,3.07-4.57,1.83c-6.31-2.56-.14,16-.64,17.45-.81,2.24-5.12-.09-6.16-4.31s-2.41-3.11-5.76-3.2-.82-4.58-.82-6.41-3.26-3.44-1.63-5.09c12.83-12.86,1.72-13.32-3.4-17.3-2.13-1.65-3.67-7.42-3.72-9.94-.09-5.08-.63-9.62,3-16.35,4.71-3.57,4.94-3.43,10.2-6.22Z" transform="translate(-68.83 -106.2)"/><path class="cls-224" d="M340.8,246.6c1.82,1.19,5.58,1.51,7.44-1.28s.82-6.78,5.8-11.81,6.21-11.73,5.53-13.6-7.48-2.43-7.43-7.88-.73-8.1,2.08-10.16.5-10.54-3.08-9.94-6.21-2.38-7.71,2.47-1.4,7.19-1.72,11.72a5.27,5.27,0,0,1-4.44,5.18c-.32,0-2.13-.28-1.72,2.93s-2.86,3.75-4,5.22-3.22,3.8-1.5,7.32,3,2.57,5.31,3.58,3.76-1.74,2.72,2.61,2.08,4.53,2,6.09-2.36,4.35-1.5,5.22,2.22,2.33,2.22,2.33Z" transform="translate(-68.83 -106.2)"/><path class="cls-214" d="M227.24,201a108.79,108.79,0,0,0-19.81,68.41c0,1.47.18,2.89.27,4.21.09,1.1.23,2.25.36,3.44A423.81,423.81,0,0,0,249,295.83c2.63-.69,5.54-1.52,5.9-2.61.72-2.11-4.35-7.42-6.39-8.84a8.26,8.26,0,0,1-2.77-3.85s-14.33-8.56-13.87-10.76,1.9-7,.41-8.65-3.72-.6-4,3.06-2.63,4.77-4.58,4.31-1.14-4.81.09-6.18c7.8-8.66-2.86-35.63-.41-37.78s15.69-4.85,15.32-7.05c-.5-3.25-1-2.24-4.89-2.06-5.35.27-6.71-9.07-6.53-14.38Z" transform="translate(-68.83 -106.2)"/><path class="cls-223" d="M290.93,214.41c-1.36.6-2.72,1.24-4,1.88l1.86,4,3.94-1.78Zm113.34,48.36c-.4-.92-.86-1.79-1.31-2.66l-3.9,2.06c.45.82.86,1.65,1.22,2.47Zm-3.44-6.6c-.73-1.28-1.45-2.56-2.13-3.84l-3.86,2.15c.73,1.28,1.45,2.61,2.18,3.89Zm-4.31-7.69-2.13-3.89-3.81,2.15c.68,1.28,1.41,2.61,2.13,3.89Zm-4.26-7.79c-.73-1.28-1.5-2.61-2.31-3.89l-3.67,2.38,2.17,3.71Zm-4.76-7.64c-.86-1.24-1.72-2.47-2.63-3.67l-3.49,2.71c.86,1.14,1.72,2.29,2.54,3.48ZM382,225.86c-1-1.19-2-2.29-3-3.39l-3.13,3.11q1.42,1.51,2.85,3.16Zm-6.3-6.55c-1.13-1.05-2.31-2-3.49-3l-2.67,3.53c1.08.87,2.17,1.79,3.22,2.75Zm-7.21-5.63a40.26,40.26,0,0,0-3.85-2.43l-2.13,3.89c1.18.78,2.4,1.42,3.58,2.25Zm-7.93-4.49a45,45,0,0,0-4.22-1.74l-1.49,4.17a38.38,38.38,0,0,1,3.9,1.6ZM352.05,206c-1.5-.41-2.95-.78-4.45-1.05l-.81,4.35q2,.4,4.08,1Zm-8.93-1.78c-1.5-.19-3-.32-4.54-.42l-.22,4.45a41.42,41.42,0,0,1,4.21.36Zm-9-.51c-1.54,0-3,0-4.53.19l.32,4.39c1.4-.09,2.81-.14,4.26-.18Zm-9,.6c-1.45.18-2.94.41-4.39.64l.72,4.39c1.41-.27,2.81-.45,4.22-.64Zm-8.84,1.51c-1.45.32-2.9.69-4.35,1.05l1.13,4.31c1.41-.37,2.77-.74,4.17-1Zm-8.61,2.29c-1.45.41-2.86.91-4.26,1.37l1.4,4.21c1.36-.5,2.72-.91,4.13-1.37ZM299.14,211,295,212.67l1.67,4.08c1.32-.55,2.68-1.06,4-1.56Z" transform="translate(-68.83 -106.2)"/><path class="cls-225" d="M276.29,217.48c3.67.18,2.31,0,4.44-2.52,3.36-4,3.22-9.29-.9-7.74-2.31.87-4.76,3.44-4.72,5a28.3,28.3,0,0,0,1.18,5.27Z" transform="translate(-68.83 -106.2)"/><path class="cls-225" d="M287.9,209.51c.45,2,5.94-3.25,5.12-4.62s-1.59-3.71-3.85-3.48c-8.21.82-1.73,6.09-1.27,8.1Z" transform="translate(-68.83 -106.2)"/><path class="cls-223" d="M162.77,163.31a17.37,17.37,0,0,0-12.83,27l6,9.25c1.32,2.06,2.63,4.08,4,6.14,1,1.55,2,3.75,3.4,4.25,2.4.87,3.49-1.51,4.4-2.93,3.35-5.12,6.62-10.35,10-15.43a4.77,4.77,0,0,0,.46-.78c.18-.23.36-.5.54-.77a14.42,14.42,0,0,0,.91-1.61,15.24,15.24,0,0,0,1.36-3.75,17.43,17.43,0,0,0-9.66-19.92,17.06,17.06,0,0,0-8.57-1.42Z" transform="translate(-68.83 -106.2)"/><path class="cls-214" d="M163.22,170.5a9.17,9.17,0,0,0-6.21,3.3A9.56,9.56,0,1,0,173.7,179a9.5,9.5,0,0,0-10.48-8.52Z" transform="translate(-68.83 -106.2)"/><path class="cls-223" d="M281.41,149.57a30,30,0,0,0-22.07,46.53L269.72,212c2.31,3.62,4.53,7,6.89,10.62,1.72,2.61,3.54,6.46,5.85,7.28,4.17,1.56,6-2.61,7.61-5,5.81-8.79,11.43-17.81,17.19-26.61.36-.5.54-.87.81-1.28s.59-.91.91-1.37a27,27,0,0,0,1.54-2.75,28.78,28.78,0,0,0,2.36-6.46,29.77,29.77,0,0,0-31.47-36.86Z" transform="translate(-68.83 -106.2)"/><path class="cls-226" d="M282.28,162c-5.4.82-8.07,2.61-10.75,5.63a16.49,16.49,0,1,0,28.79,9,16.34,16.34,0,0,0-5.71-10.9A16.05,16.05,0,0,0,282.28,162Z" transform="translate(-68.83 -106.2)"/><path class="cls-223" d="M399.88,219.13a17.37,17.37,0,0,0-12.83,27l6,9.25c1.31,2.1,2.63,4.07,4,6.18,1,1.51,2,3.75,3.4,4.21,2.4.92,3.49-1.51,4.39-2.93,3.36-5.08,6.62-10.35,10-15.43a5.19,5.19,0,0,0,.45-.73c.18-.28.36-.55.54-.78a12.85,12.85,0,0,0,.91-1.6,16.79,16.79,0,0,0,1.36-3.76,17.51,17.51,0,0,0-1.72-12.59,17.24,17.24,0,0,0-7.94-7.33,17,17,0,0,0-8.56-1.46Z" transform="translate(-68.83 -106.2)"/><path class="cls-226" d="M400.33,226.32a9.23,9.23,0,0,0-6.21,3.29,9.56,9.56,0,1,0,16.68,5.22,9.39,9.39,0,0,0-3.31-6.32,9.52,9.52,0,0,0-7.16-2.19Z" transform="translate(-68.83 -106.2)"/><path class="cls-223" d="M445.8,175.22a14.6,14.6,0,0,0-10.74,22.66l5.07,7.74c1.09,1.79,2.18,3.43,3.36,5.17.82,1.29,1.72,3.16,2.81,3.58,2,.73,2.95-1.29,3.72-2.48,2.81-4.3,5.57-8.65,8.38-13a3.78,3.78,0,0,0,.37-.64c.13-.18.31-.41.45-.64.27-.41.5-.82.77-1.33a13.27,13.27,0,0,0,1.13-3.16,14.68,14.68,0,0,0-1.45-10.57,14.47,14.47,0,0,0-6.66-6.14,14.31,14.31,0,0,0-7.21-1.23Z" transform="translate(-68.83 -106.2)"/><path class="cls-214" d="M446.21,181.26a8,8,0,0,0-7.07,8.84A8,8,0,1,0,455,188.4a7.76,7.76,0,0,0-2.76-5.26,7.85,7.85,0,0,0-6-1.88Z" transform="translate(-68.83 -106.2)"/><path class="cls-223" d="M168.57,217.16a10.46,10.46,0,0,1-1.17-3.44l-4.36.6a14.47,14.47,0,0,0,1.68,4.9Zm36.54,17a29.51,29.51,0,0,1-4.08-.32l-.63,4.35a29.6,29.6,0,0,0,4.62.41Zm-8.25-1.1c-1.4-.27-2.76-.64-4.12-1l-1.18,4.25c1.4.42,2.9.78,4.35,1.1Zm-8.2-2.33c-1.32-.46-2.63-1-3.95-1.51L183,233.32c1.36.6,2.76,1.15,4.21,1.65Zm-7.8-3.3c-1.22-.64-2.45-1.33-3.63-2.06l-2.35,3.76c1.31.82,2.67,1.55,4,2.24Zm-7-4.44a25.26,25.26,0,0,1-3-2.75l-3.22,3a23.88,23.88,0,0,0,3.49,3.25Z" transform="translate(-68.83 -106.2)"/><path class="cls-223" d="M212.37,254.29c-1.45-.32-3-.68-4.4-.91l-.72,4.35c1.36.27,2.81.59,4.17.91Zm65.19-20.6a18.47,18.47,0,0,1-1.13,3.8l4,1.69a22.48,22.48,0,0,0,1.41-4.62Zm-3,7.37a23.88,23.88,0,0,1-2.45,3.21l3.22,3a25.18,25.18,0,0,0,2.9-3.75Zm-5.4,6.05a35.25,35.25,0,0,1-3.35,2.47l2.4,3.71a31.34,31.34,0,0,0,3.72-2.75Zm-6.93,4.57c-1.27.65-2.5,1.19-3.81,1.74l1.63,4.13c1.41-.65,2.77-1.24,4.17-1.93Zm-7.8,3.21c-1.31.41-2.67.78-4.08,1.14l1,4.31c1.5-.37,2.95-.78,4.4-1.24Zm-8.21,2c-1.4.23-2.81.42-4.21.6l.5,4.4c1.49-.19,3-.37,4.44-.65Zm-8.38.92a39.61,39.61,0,0,1-4.22-.05l-.27,4.4a36.82,36.82,0,0,0,4.58.09Zm-8.44-.46c-1.4-.14-2.85-.36-4.26-.59l-.68,4.39c1.45.23,2.95.46,4.4.6ZM220.89,256c-1.45-.22-2.85-.55-4.26-.82l-.91,4.35c1.45.32,2.9.6,4.36.87Z" transform="translate(-68.83 -106.2)"/></svg>