<svg id="Слой_1" data-name="Слой 1" xmlns="http://www.w3.org/2000/svg" xmlns:xlink="http://www.w3.org/1999/xlink" viewBox="0 0 486.65 316.77"><defs><style>.cls-1,.cls-215{fill:none;}.cls-1,.cls-10,.cls-100,.cls-101,.cls-102,.cls-103,.cls-104,.cls-105,.cls-106,.cls-107,.cls-108,.cls-109,.cls-11,.cls-110,.cls-111,.cls-112,.cls-113,.cls-114,.cls-115,.cls-116,.cls-117,.cls-118,.cls-119,.cls-12,.cls-120,.cls-121,.cls-122,.cls-123,.cls-124,.cls-125,.cls-126,.cls-127,.cls-128,.cls-129,.cls-13,.cls-130,.cls-131,.cls-132,.cls-133,.cls-134,.cls-135,.cls-136,.cls-137,.cls-138,.cls-139,.cls-14,.cls-140,.cls-141,.cls-142,.cls-143,.cls-144,.cls-145,.cls-146,.cls-147,.cls-148,.cls-149,.cls-15,.cls-150,.cls-151,.cls-152,.cls-153,.cls-154,.cls-155,.cls-156,.cls-157,.cls-158,.cls-159,.cls-16,.cls-160,.cls-161,.cls-162,.cls-163,.cls-164,.cls-165,.cls-166,.cls-167,.cls-168,.cls-169,.cls-17,.cls-170,.cls-171,.cls-172,.cls-173,.cls-174,.cls-175,.cls-176,.cls-177,.cls-178,.cls-179,.cls-18,.cls-180,.cls-181,.cls-182,.cls-183,.cls-184,.cls-185,.cls-186,.cls-187,.cls-188,.cls-189,.cls-19,.cls-190,.cls-191,.cls-192,.cls-193,.cls-194,.cls-195,.cls-196,.cls-197,.cls-198,.cls-199,.cls-2,.cls-20,.cls-200,.cls-201,.cls-202,.cls-203,.cls-204,.cls-205,.cls-206,.cls-207,.cls-208,.cls-209,.cls-21,.cls-210,.cls-211,.cls-212,.cls-213,.cls-214,.cls-215,.cls-216,.cls-218,.cls-219,.cls-22,.cls-220,.cls-221,.cls-222,.cls-223,.cls-224,.cls-225,.cls-226,.cls-227,.cls-228,.cls-229,.cls-23,.cls-230,.cls-231,.cls-232,.cls-24,.cls-25,.cls-26,.cls-27,.cls-28,.cls-29,.cls-3,.cls-30,.cls-31,.cls-32,.cls-33,.cls-34,.cls-35,.cls-36,.cls-37,.cls-38,.cls-39,.cls-40,.cls-41,.cls-42,.cls-43,.cls-44,.cls-45,.cls-46,.cls-47,.cls-48,.cls-49,.cls-5,.cls-50,.cls-51,.cls-52,.cls-53,.cls-54,.cls-55,.cls-56,.cls-57,.cls-58,.cls-59,.cls-6,.cls-60,.cls-61,.cls-62,.cls-63,.cls-64,.cls-65,.cls-66,.cls-67,.cls-68,.cls-69,.cls-7,.cls-70,.cls-71,.cls-72,.cls-73,.cls-74,.cls-75,.cls-76,.cls-77,.cls-78,.cls-79,.cls-8,.cls-80,.cls-81,.cls-82,.cls-83,.cls-84,.cls-85,.cls-86,.cls-87,.cls-88,.cls-89,.cls-9,.cls-90,.cls-91,.cls-92,.cls-93,.cls-94,.cls-95,.cls-96,.cls-97,.cls-98,.cls-99{stroke:#000;stroke-miterlimit:10;}.cls-1,.cls-10,.cls-100,.cls-101,.cls-102,.cls-103,.cls-104,.cls-105,.cls-106,.cls-107,.cls-108,.cls-109,.cls-11,.cls-110,.cls-111,.cls-112,.cls-113,.cls-114,.cls-115,.cls-116,.cls-117,.cls-118,.cls-119,.cls-12,.cls-120,.cls-121,.cls-122,.cls-123,.cls-124,.cls-125,.cls-126,.cls-127,.cls-128,.cls-129,.cls-13,.cls-130,.cls-131,.cls-132,.cls-133,.cls-134,.cls-135,.cls-136,.cls-137,.cls-138,.cls-139,.cls-14,.cls-140,.cls-141,.cls-142,.cls-143,.cls-144,.cls-145,.cls-146,.cls-147,.cls-148,.cls-149,.cls-15,.cls-150,.cls-151,.cls-152,.cls-153,.cls-154,.cls-155,.cls-156,.cls-157,.cls-158,.cls-159,.cls-16,.cls-160,.cls-161,.cls-162,.cls-163,.cls-164,.cls-165,.cls-166,.cls-167,.cls-168,.cls-169,.cls-17,.cls-170,.cls-171,.cls-172,.cls-173,.cls-174,.cls-175,.cls-176,.cls-177,.cls-178,.cls-179,.cls-18,.cls-180,.cls-181,.cls-182,.cls-183,.cls-184,.cls-185,.cls-186,.cls-187,.cls-188,.cls-189,.cls-19,.cls-190,.cls-191,.cls-192,.cls-193,.cls-194,.cls-195,.cls-196,.cls-197,.cls-198,.cls-199,.cls-20,.cls-200,.cls-201,.cls-202,.cls-203,.cls-204,.cls-205,.cls-206,.cls-207,.cls-208,.cls-209,.cls-21,.cls-210,.cls-211,.cls-212,.cls-213,.cls-214,.cls-215,.cls-216,.cls-218,.cls-219,.cls-22,.cls-220,.cls-221,.cls-222,.cls-223,.cls-224,.cls-225,.cls-226,.cls-227,.cls-228,.cls-229,.cls-23,.cls-230,.cls-231,.cls-232,.cls-24,.cls-25,.cls-26,.cls-27,.cls-28,.cls-29,.cls-3,.cls-30,.cls-31,.cls-32,.cls-33,.cls-34,.cls-35,.cls-36,.cls-37,.cls-38,.cls-39,.cls-40,.cls-41,.cls-42,.cls-43,.cls-44,.cls-45,.cls-46,.cls-47,.cls-48,.cls-49,.cls-5,.cls-50,.cls-51,.cls-52,.cls-53,.cls-54,.cls-55,.cls-56,.cls-57,.cls-58,.cls-59,.cls-6,.cls-60,.cls-61,.cls-62,.cls-63,.cls-64,.cls-65,.cls-66,.cls-67,.cls-68,.cls-69,.cls-7,.cls-70,.cls-71,.cls-72,.cls-73,.cls-74,.cls-75,.cls-76,.cls-77,.cls-78,.cls-79,.cls-8,.cls-80,.cls-81,.cls-82,.cls-83,.cls-84,.cls-85,.cls-86,.cls-87,.cls-88,.cls-89,.cls-9,.cls-90,.cls-91,.cls-92,.cls-93,.cls-94,.cls-95,.cls-96,.cls-97,.cls-98,.cls-99{stroke-width:0.25px;}.cls-2{stroke-width:0.5px;fill:url(#linear-gradient);}.cls-2,.cls-216{fill-rule:evenodd;}.cls-3{fill:#342425;}.cls-4{clip-path:url(#clip-path);}.cls-5{fill:#38383a;}.cls-6{fill:#39393b;}.cls-7{fill:#3a3a3d;}.cls-8{fill:#3b3b3e;}.cls-9{fill:#3c3c3f;}.cls-10{fill:#3d3d3f;}.cls-11{fill:#3e3e40;}.cls-12{fill:#403f41;}.cls-13{fill:#414042;}.cls-14{fill:#424143;}.cls-15{fill:#434244;}.cls-16{fill:#444345;}.cls-17{fill:#444446;}.cls-18{fill:#464548;}.cls-19{fill:#474649;}.cls-20{fill:#48474a;}.cls-21{fill:#49484b;}.cls-22{fill:#4a494b;}.cls-23{fill:#4b4a4c;}.cls-24{fill:#4c4b4d;}.cls-25{fill:#4d4c4e;}.cls-26{fill:#4e4d4f;}.cls-27{fill:#4e4e50;}.cls-28{fill:#4f4f51;}.cls-29{fill:#505052;}.cls-30{fill:#515052;}.cls-31{fill:#525154;}.cls-32{fill:#535255;}.cls-33{fill:#545355;}.cls-34{fill:#555456;}.cls-35{fill:#565557;}.cls-36{fill:#575658;}.cls-37{fill:#585859;}.cls-38{fill:#5a595b;}.cls-39{fill:#59595b;}.cls-40{fill:#5b5b5d;}.cls-41{fill:#5c5b5e;}.cls-42{fill:#5d5c5e;}.cls-43{fill:#5e5d5f;}.cls-44{fill:#5f5e60;}.cls-45{fill:#605f61;}.cls-46{fill:#616062;}.cls-47{fill:#626163;}.cls-48{fill:#636264;}.cls-49{fill:#636365;}.cls-50{fill:#646466;}.cls-51{fill:#656568;}.cls-52{fill:#666668;}.cls-53{fill:#686868;}.cls-54{fill:#696769;}.cls-55{fill:#69686a;}.cls-56{fill:#6a696b;}.cls-57{fill:#6b6a6c;}.cls-58{fill:#6c6b6d;}.cls-59{fill:#6d6c6e;}.cls-60{fill:#6e6e70;}.cls-61{fill:#6e6e71;}.cls-62{fill:#6f6f72;}.cls-63{fill:#717072;}.cls-64{fill:#717172;}.cls-65{fill:#737374;}.cls-66{fill:#737274;}.cls-67{fill:#747476;}.cls-68{fill:#757476;}.cls-69{fill:#767678;}.cls-70{fill:#777678;}.cls-71{fill:#79787a;}.cls-72{fill:#7a797b;}.cls-73{fill:#7a7a7c;}.cls-74{fill:#7a7b7c;}.cls-75{fill:#7b7b7c;}.cls-76{fill:#7c7d7d;}.cls-77{fill:#7e7e7f;}.cls-78{fill:#7e7d7f;}.cls-79{fill:#7f7e80;}.cls-80{fill:gray;}.cls-81{fill:#818081;}.cls-82{fill:#818183;}.cls-83{fill:#828283;}.cls-84{fill:#828284;}.cls-85{fill:#848384;}.cls-86{fill:#858586;}.cls-87{fill:#868586;}.cls-88{fill:#878687;}.cls-89{fill:#878889;}.cls-90{fill:#888789;}.cls-91{fill:#8a888a;}.cls-92{fill:#8b898c;}.cls-93{fill:#8c8b8d;}.cls-94{fill:#8d8b8d;}.cls-95{fill:#8e8d8e;}.cls-96{fill:#8f8e8f;}.cls-97{fill:#8f9090;}.cls-98{fill:#919192;}.cls-99{fill:#929293;}.cls-100{fill:#949395;}.cls-101{fill:#959496;}.cls-102{fill:#959597;}.cls-103{fill:#969597;}.cls-104{fill:#979698;}.cls-105{fill:#979898;}.cls-106{fill:#99999a;}.cls-107{fill:#9a9a9b;}.cls-108{fill:#9b9b9c;}.cls-109{fill:#9b9c9d;}.cls-110{fill:#9c9d9e;}.cls-111{fill:#9d9e9f;}.cls-112{fill:#9e9da0;}.cls-113{fill:#a09ea1;}.cls-114{fill:#a19fa2;}.cls-115{fill:#a2a1a2;}.cls-116{fill:#a2a2a2;}.cls-117{fill:#a3a2a3;}.cls-118{fill:#a4a4a5;}.cls-119{fill:#a5a5a6;}.cls-120{fill:#a6a6a6;}.cls-121{fill:#a7a6a8;}.cls-122{fill:#a8a8a9;}.cls-123{fill:#a9a9a9;}.cls-124{fill:#aaa8aa;}.cls-125{fill:#aba9ab;}.cls-126{fill:#acaaac;}.cls-127{fill:#acabac;}.cls-128{fill:#aeadae;}.cls-129{fill:#aeadaf;}.cls-130{fill:#afaeb0;}.cls-131{fill:#afafb1;}.cls-132{fill:#b0b0b2;}.cls-133{fill:#b1b1b3;}.cls-134{fill:#b3b3b4;}.cls-135{fill:#b4b4b5;}.cls-136{fill:#b5b4b5;}.cls-137{fill:#b6b5b6;}.cls-138{fill:#b7b6b7;}.cls-139{fill:#b8b7b8;}.cls-140{fill:#b8b8b8;}.cls-141{fill:#b9b9b9;}.cls-142{fill:#b9babb;}.cls-143{fill:#bbbbbc;}.cls-144{fill:#bcbcbd;}.cls-145{fill:#bdbdbe;}.cls-146{fill:#bdbebe;}.cls-147{fill:#bfbebe;}.cls-148{fill:silver;}.cls-149{fill:#c1c0c1;}.cls-150{fill:#c2c1c2;}.cls-151{fill:#c3c2c3;}.cls-152{fill:#c3c3c3;}.cls-153{fill:#c4c4c5;}.cls-154{fill:#c5c4c5;}.cls-155{fill:#c6c6c7;}.cls-156{fill:#c7c6c8;}.cls-157{fill:#c8c7c7;}.cls-158{fill:#c9c9c8;}.cls-159{fill:#cacaca;}.cls-160{fill:#cbcbcb;}.cls-161{fill:#ccc;}.cls-162{fill:#cdcccc;}.cls-163{fill:#cecdce;}.cls-164{fill:#cececf;}.cls-165{fill:#cfcfd0;}.cls-166{fill:#d0d0d1;}.cls-167{fill:#d1d1d2;}.cls-168{fill:#d3d2d2;}.cls-169{fill:#d3d3d3;}.cls-170{fill:#d4d4d4;}.cls-171{fill:#d5d5d4;}.cls-172{fill:#d6d6d6;}.cls-173{fill:#d7d6d7;}.cls-174{fill:#d8d6d8;}.cls-175{fill:#d8d8d8;}.cls-176{fill:#d9d9da;}.cls-177{fill:#dad9db;}.cls-178{fill:#dbdbda;}.cls-179{fill:#dcdcdc;}.cls-180{fill:#ddd;}.cls-181{fill:#dedede;}.cls-182{fill:#dededf;}.cls-183{fill:#e0e0e0;}.cls-184{fill:#e1e0e1;}.cls-185{fill:#e2e1e2;}.cls-186{fill:#e3e1e3;}.cls-187{fill:#e3e3e4;}.cls-188{fill:#e4e3e4;}.cls-189{fill:#e5e5e5;}.cls-190{fill:#e6e6e5;}.cls-191{fill:#e7e7e7;}.cls-192{fill:#e7e7e8;}.cls-193{fill:#e9e8e9;}.cls-194{fill:#ebeae9;}.cls-195{fill:#ecebeb;}.cls-196{fill:#ececec;}.cls-197{fill:#eeeced;}.cls-198{fill:#ededee;}.cls-199{fill:#eeedef;}.cls-200{fill:#efefee;}.cls-201{fill:#f0f0f0;}.cls-202{fill:#f1f2f1;}.cls-203{fill:#f2f3f3;}.cls-204{fill:#f3f3f4;}.cls-205{fill:#f4f5f5;}.cls-206{fill:#f5f5f5;}.cls-207{fill:#f6f7f7;}.cls-208{fill:#f7f7f7;}.cls-209{fill:#f7f6f8;}.cls-210{fill:#f8f9f9;}.cls-211{fill:#f9fafb;}.cls-212{fill:#fbfbfc;}.cls-213{fill:#fcfdfd;}.cls-214{fill:#fff;}.cls-215{stroke-linecap:round;}.cls-216,.cls-223{fill:#000105;}.cls-217{clip-path:url(#clip-path-2);}.cls-218{fill:#fdfbf8;}.cls-219{fill:#fdfbf9;}.cls-220{fill:#fffffc;}.cls-221{fill:#fffffd;}.cls-222{fill:url(#linear-gradient-2);}.cls-224{fill:url(#linear-gradient-3);}.cls-225{fill:#271c1c;}.cls-226{fill:url(#linear-gradient-4);}.cls-227{fill:url(#linear-gradient-5);}.cls-228{fill:#fdf9f6;}.cls-229{fill:url(#linear-gradient-6);}.cls-230{fill:url(#linear-gradient-7);}.cls-231{fill:url(#linear-gradient-8);}.cls-232{fill:url(#linear-gradient-9);}</style><linearGradient id="linear-gradient" x1="117.56" y1="344.74" x2="487.3" y2="344.74" gradientUnits="userSpaceOnUse"><stop offset="0" stop-color="#a78a61"/><stop offset="0.06" stop-color="#ad9066"/><stop offset="0.51" stop-color="#d6bc86"/><stop offset="1" stop-color="#a78a61"/></linearGradient><clipPath id="clip-path" transform="translate(-59.2 -77.48)"><path class="cls-1" d="M302.9,350.18C354.77,286.7,490.53,270.52,537,262.54c4.89-1.45,5.07-2,2.38-4.48l-87.67-83C393,186.91,339.11,196.52,303.8,211.65c-27.41-15.77-97.94-32-149.94-36.56L65.79,258.42c-3,2.81,1.3,3.58,1.66,3.58,20.64,2.13,192.83,24.51,235.45,88.18Z"/></clipPath><clipPath id="clip-path-2" transform="translate(-59.2 -77.48)"><path class="cls-1" d="M377.2,153.65c21.08,19.85,34,48.08,35.58,80,.4,7.7-.14,8.83-1.22,16.45-5.6,7.25-89.73,31.72-102.06,32.26-20.78.14-91.13-17.13-113.74-34.8-.13-1.54-1.21-2-1.25-3.45-1.62-31.9,7.58-60.08,26.51-82.06s45.9-36.39,76.41-38,58.73,9.79,79.77,29.59Z"/></clipPath><linearGradient id="linear-gradient-2" x1="406.63" y1="196.88" x2="437.52" y2="196.88" xlink:href="#linear-gradient"/><linearGradient id="linear-gradient-3" x1="275.13" y1="204.31" x2="391.29" y2="204.31" xlink:href="#linear-gradient"/><linearGradient id="linear-gradient-4" x1="136.71" y1="157.28" x2="170.79" y2="157.28" xlink:href="#linear-gradient"/><linearGradient id="linear-gradient-5" x1="242.88" y1="160.44" x2="301.66" y2="160.44" xlink:href="#linear-gradient"/><linearGradient id="linear-gradient-6" x1="371.35" y1="212.53" x2="405.44" y2="212.53" xlink:href="#linear-gradient"/><linearGradient id="linear-gradient-7" x1="419.34" y1="165.36" x2="447.94" y2="165.36" xlink:href="#linear-gradient"/><linearGradient id="linear-gradient-8" x1="152.56" y1="196.38" x2="194.19" y2="196.38" xlink:href="#linear-gradient"/><linearGradient id="linear-gradient-9" x1="196.3" y1="217.97" x2="270.15" y2="217.97" xlink:href="#linear-gradient"/></defs><title>logoyelsvg</title><path class="cls-2" d="M487.3,295.76c-35.67,58.5-105,98.24-184.8,98.24s-149.31-39.83-184.94-98.51c26.25,4.62,54.42,10.24,69.9,15.63C273.33,341.3,294,372.75,303.35,372.93c6.91.13,35.85-34.4,113.82-61.81,15.44-5.39,43.66-10.92,70.13-15.36Z" transform="translate(-59.2 -77.48)"/><polygon class="cls-3" points="242.94 263.55 244.15 106.26 245.14 106.26 243.97 263.55 242.94 263.55"/><g class="cls-4"><polygon class="cls-5" points="486.52 101.91 486.47 102.86 8.21 81.06 8.25 80.11 486.52 101.91"/><polygon class="cls-6" points="486.47 102.45 486.43 103.72 8.16 81.88 8.21 80.61 486.47 102.45"/><polygon class="cls-7" points="486.43 103.27 486.38 104.54 8.12 82.74 8.16 81.47 486.43 103.27"/><polygon class="cls-8" points="486.38 104.13 486.34 105.4 8.07 83.6 8.12 82.33 486.38 104.13"/><polygon class="cls-9" points="486.38 104.99 486.29 106.26 8.03 84.42 8.12 83.15 486.38 104.99"/><polygon class="cls-10" points="486.34 105.81 486.25 107.07 7.98 85.28 8.07 84.01 486.34 105.81"/><polygon class="cls-11" points="486.29 106.67 486.25 107.94 7.98 86.14 8.03 84.87 486.29 106.67"/><polygon class="cls-12" points="486.25 107.53 486.2 108.75 7.94 86.95 7.98 85.69 486.25 107.53"/><polygon class="cls-13" points="486.2 108.34 486.16 109.61 7.89 87.81 7.94 86.55 486.2 108.34"/><polygon class="cls-14" points="486.16 109.2 486.11 110.47 7.85 88.68 7.89 87.41 486.16 109.2"/><polygon class="cls-15" points="486.11 110.02 486.07 111.29 7.8 89.49 7.85 88.22 486.11 110.02"/><polygon class="cls-16" points="486.11 110.88 486.02 112.15 7.76 90.35 7.85 89.08 486.11 110.88"/><polygon class="cls-17" points="486.07 111.74 486.02 113.01 7.76 91.21 7.8 89.94 486.07 111.74"/><polygon class="cls-17" points="486.02 112.56 485.98 113.83 7.71 92.03 7.76 90.76 486.02 112.56"/><polygon class="cls-18" points="485.98 113.42 485.93 114.69 7.67 92.89 7.71 91.62 485.98 113.42"/><polygon class="cls-19" points="485.93 114.28 485.89 115.55 7.62 93.75 7.67 92.48 485.93 114.28"/><polygon class="cls-20" points="485.89 115.09 485.84 116.36 7.58 94.57 7.62 93.3 485.89 115.09"/><polygon class="cls-21" points="485.89 115.95 485.8 117.22 7.54 95.43 7.62 94.16 485.89 115.95"/><polygon class="cls-22" points="485.84 116.82 485.75 118.08 7.49 96.29 7.58 95.02 485.84 116.82"/><polygon class="cls-23" points="485.8 117.63 485.75 118.9 7.49 97.1 7.54 95.83 485.8 117.63"/><polygon class="cls-24" points="485.75 118.49 485.71 119.76 7.45 97.97 7.49 96.7 485.75 118.49"/><polygon class="cls-25" points="485.71 119.35 485.66 120.62 7.4 98.83 7.45 97.56 485.71 119.35"/><polygon class="cls-26" points="485.66 120.17 485.62 121.44 7.36 99.64 7.4 98.37 485.66 120.17"/><polygon class="cls-27" points="485.66 121.03 485.57 122.3 7.31 100.5 7.4 99.23 485.66 121.03"/><polygon class="cls-28" points="485.62 121.89 485.53 123.16 7.26 101.36 7.36 100.09 485.62 121.89"/><polygon class="cls-29" points="485.57 122.71 485.53 123.98 7.26 102.18 7.31 100.91 485.57 122.71"/><polygon class="cls-30" points="485.53 123.57 485.48 124.84 7.22 103.04 7.26 101.77 485.53 123.57"/><polygon class="cls-31" points="485.48 124.43 485.44 125.7 7.18 103.9 7.22 102.63 485.48 124.43"/><polygon class="cls-32" points="485.44 125.25 485.39 126.51 7.13 104.72 7.18 103.45 485.44 125.25"/><polygon class="cls-33" points="485.39 126.11 485.35 127.37 7.09 105.58 7.13 104.31 485.39 126.11"/><polygon class="cls-34" points="485.39 126.97 485.3 128.24 7.04 106.44 7.13 105.17 485.39 126.97"/><polygon class="cls-35" points="485.35 127.78 485.3 129.05 7.04 107.25 7.09 105.99 485.35 127.78"/><polygon class="cls-36" points="485.3 128.64 485.26 129.91 7 108.12 7.04 106.85 485.3 128.64"/><polygon class="cls-37" points="485.26 129.5 485.21 130.77 6.95 108.98 7 107.71 485.26 129.5"/><polygon class="cls-38" points="485.21 130.32 485.17 131.59 6.91 109.79 6.95 108.52 485.21 130.32"/><polygon class="cls-39" points="485.17 131.18 485.13 132.45 6.86 110.65 6.91 109.39 485.17 131.18"/><polygon class="cls-40" points="485.17 132.04 485.08 133.31 6.82 111.51 6.91 110.25 485.17 132.04"/><polygon class="cls-40" points="485.13 132.86 485.04 134.13 6.77 112.33 6.86 111.06 485.13 132.86"/><polygon class="cls-41" points="485.08 133.72 485.04 134.99 6.77 113.19 6.82 111.92 485.08 133.72"/><polygon class="cls-42" points="485.04 134.58 484.99 135.85 6.73 114.05 6.77 112.78 485.04 134.58"/><polygon class="cls-43" points="484.99 135.4 484.94 136.66 6.68 114.87 6.73 113.6 484.99 135.4"/><polygon class="cls-44" points="484.94 136.26 484.9 137.53 6.64 115.73 6.68 114.46 484.94 136.26"/><polygon class="cls-45" points="484.94 137.12 484.86 138.39 6.59 116.59 6.68 115.32 484.94 137.12"/><polygon class="cls-46" points="484.9 137.93 484.81 139.2 6.55 117.41 6.64 116.14 484.9 137.93"/><polygon class="cls-47" points="484.86 138.79 484.81 140.06 6.55 118.27 6.59 117 484.86 138.79"/><polygon class="cls-48" points="484.81 139.66 484.77 140.92 6.5 119.13 6.55 117.86 484.81 139.66"/><polygon class="cls-49" points="484.77 140.47 484.72 141.74 6.46 119.94 6.5 118.67 484.77 140.47"/><polygon class="cls-50" points="484.72 141.33 484.68 142.6 6.41 120.8 6.46 119.53 484.72 141.33"/><polygon class="cls-51" points="484.68 142.19 484.63 143.46 6.37 121.67 6.41 120.4 484.68 142.19"/><polygon class="cls-52" points="484.68 143.01 484.59 144.28 6.32 122.48 6.41 121.21 484.68 143.01"/><polygon class="cls-53" points="484.63 143.87 484.59 145.14 6.32 123.34 6.37 122.07 484.63 143.87"/><polygon class="cls-54" points="484.59 144.73 484.54 146 6.28 124.2 6.32 122.93 484.59 144.73"/><polygon class="cls-55" points="484.54 145.55 484.5 146.81 6.23 125.02 6.28 123.75 484.54 145.55"/><polygon class="cls-56" points="484.5 146.41 484.45 147.68 6.19 125.88 6.23 124.61 484.5 146.41"/><polygon class="cls-57" points="484.45 147.27 484.41 148.54 6.14 126.74 6.19 125.47 484.45 147.27"/><polygon class="cls-58" points="484.45 148.08 484.36 149.35 6.1 127.56 6.19 126.29 484.45 148.08"/><polygon class="cls-59" points="484.41 148.94 484.32 150.21 6.05 128.42 6.14 127.15 484.41 148.94"/><polygon class="cls-60" points="484.36 149.81 484.32 151.07 6.05 129.28 6.1 128.01 484.36 149.81"/><polygon class="cls-61" points="484.32 150.62 484.27 151.89 6.01 130.09 6.05 128.82 484.32 150.62"/><polygon class="cls-62" points="484.27 151.48 484.23 152.75 5.96 130.95 6.01 129.69 484.27 151.48"/><polygon class="cls-63" points="484.23 152.34 484.18 153.61 5.92 131.81 5.96 130.55 484.23 152.34"/><polygon class="cls-64" points="484.23 153.16 484.14 154.43 5.88 132.63 5.96 131.36 484.23 153.16"/><polygon class="cls-65" points="484.18 154.02 484.09 155.29 5.83 133.49 5.92 132.22 484.18 154.02"/><polygon class="cls-66" points="484.14 154.88 484.09 156.15 5.83 134.35 5.88 133.08 484.14 154.88"/><polygon class="cls-67" points="484.09 155.7 484.05 156.97 5.79 135.17 5.83 133.9 484.09 155.7"/><polygon class="cls-68" points="484.05 156.56 484 157.83 5.74 136.03 5.79 134.76 484.05 156.56"/><polygon class="cls-69" points="484 157.42 483.96 158.69 5.7 136.89 5.74 135.62 484 157.42"/><polygon class="cls-70" points="483.96 158.23 483.91 159.5 5.65 137.71 5.7 136.44 483.96 158.23"/><polygon class="cls-71" points="483.96 159.09 483.87 160.36 5.61 138.57 5.7 137.3 483.96 159.09"/><polygon class="cls-72" points="483.91 159.96 483.87 161.22 5.61 139.43 5.65 138.16 483.91 159.96"/><polygon class="cls-73" points="483.87 160.77 483.82 162.04 5.56 140.24 5.61 138.97 483.87 160.77"/><polygon class="cls-74" points="483.82 161.63 483.78 162.9 5.52 141.1 5.56 139.84 483.82 161.63"/><polygon class="cls-75" points="483.78 162.49 483.73 163.76 5.47 141.97 5.52 140.7 483.78 162.49"/><polygon class="cls-76" points="483.73 163.31 483.69 164.58 5.43 142.78 5.47 141.51 483.73 163.31"/><polygon class="cls-77" points="483.73 164.17 483.64 165.44 5.38 143.64 5.47 142.37 483.73 164.17"/><polygon class="cls-78" points="483.69 165.03 483.6 166.3 5.34 144.5 5.43 143.23 483.69 165.03"/><polygon class="cls-79" points="483.64 165.85 483.6 167.12 5.34 145.32 5.38 144.05 483.64 165.85"/><polygon class="cls-80" points="483.6 166.71 483.56 167.98 5.29 146.18 5.34 144.91 483.6 166.71"/><polygon class="cls-81" points="483.56 167.57 483.51 168.84 5.25 147.04 5.29 145.77 483.56 167.57"/><polygon class="cls-82" points="483.51 168.38 483.46 169.65 5.2 147.86 5.25 146.59 483.51 168.38"/><polygon class="cls-83" points="483.51 169.25 483.42 170.51 5.16 148.72 5.25 147.45 483.51 169.25"/><polygon class="cls-84" points="483.46 170.11 483.38 171.38 5.11 149.58 5.2 148.31 483.46 170.11"/><polygon class="cls-85" points="483.42 170.92 483.38 172.19 5.11 150.39 5.16 149.13 483.42 170.92"/><polygon class="cls-86" points="483.38 171.78 483.33 173.05 5.07 151.25 5.11 149.99 483.38 171.78"/><polygon class="cls-87" points="483.33 172.64 483.29 173.91 5.02 152.07 5.07 150.8 483.33 172.64"/><polygon class="cls-88" points="483.29 173.46 483.24 174.73 4.98 152.93 5.02 151.66 483.29 173.46"/><polygon class="cls-89" points="483.24 174.32 483.2 175.59 4.93 153.79 4.98 152.52 483.24 174.32"/><polygon class="cls-90" points="483.24 175.18 483.15 176.45 4.89 154.61 4.98 153.34 483.24 175.18"/><polygon class="cls-91" points="483.2 176 483.15 177.27 4.89 155.47 4.93 154.2 483.2 176"/><polygon class="cls-92" points="483.15 176.86 483.11 178.13 4.84 156.33 4.89 155.06 483.15 176.86"/><polygon class="cls-93" points="483.11 177.72 483.06 178.99 4.8 157.15 4.84 155.88 483.11 177.72"/><polygon class="cls-94" points="483.06 178.53 483.02 179.8 4.75 158.01 4.8 156.74 483.06 178.53"/><polygon class="cls-95" points="483.02 179.4 482.97 180.66 4.71 158.87 4.75 157.6 483.02 179.4"/><polygon class="cls-96" points="483.02 180.26 482.93 181.53 4.66 159.68 4.75 158.41 483.02 180.26"/><polygon class="cls-96" points="482.97 181.07 482.88 182.34 4.62 160.54 4.71 159.28 482.97 181.07"/><polygon class="cls-97" points="482.93 181.93 482.88 183.2 4.62 161.41 4.66 160.14 482.93 181.93"/><polygon class="cls-98" points="482.88 182.79 482.84 184.06 4.57 162.22 4.62 160.95 482.88 182.79"/><polygon class="cls-98" points="482.84 183.61 482.79 184.88 4.53 163.08 4.57 161.81 482.84 183.61"/><polygon class="cls-99" points="482.79 184.47 482.75 185.74 4.48 163.94 4.53 162.67 482.79 184.47"/><polygon class="cls-100" points="482.79 185.33 482.7 186.6 4.44 164.76 4.53 163.49 482.79 185.33"/><polygon class="cls-101" points="482.75 186.15 482.66 187.42 4.39 165.62 4.48 164.35 482.75 186.15"/><polygon class="cls-102" points="482.7 187.01 482.66 188.28 4.39 166.48 4.44 165.21 482.7 187.01"/><polygon class="cls-103" points="482.66 187.87 482.61 189.14 4.35 167.3 4.39 166.03 482.66 187.87"/><polygon class="cls-104" points="482.61 188.69 482.57 189.95 4.3 168.16 4.35 166.89 482.61 188.69"/><polygon class="cls-105" points="482.57 189.55 482.52 190.81 4.26 169.02 4.3 167.75 482.57 189.55"/><polygon class="cls-106" points="482.52 190.41 482.48 191.68 4.21 169.83 4.26 168.56 482.52 190.41"/><polygon class="cls-107" points="482.52 191.22 482.43 192.49 4.17 170.69 4.26 169.43 482.52 191.22"/><polygon class="cls-108" points="482.48 192.08 482.43 193.35 4.17 171.56 4.21 170.29 482.48 192.08"/><polygon class="cls-109" points="482.43 192.9 482.39 194.17 4.13 172.37 4.17 171.1 482.43 192.9"/><polygon class="cls-110" points="482.39 193.76 482.34 195.03 4.08 173.23 4.13 171.96 482.39 193.76"/><polygon class="cls-111" points="482.34 194.62 482.3 195.89 4.04 174.09 4.08 172.82 482.34 194.62"/><polygon class="cls-112" points="482.3 195.44 482.25 196.71 3.99 174.91 4.04 173.64 482.3 195.44"/><polygon class="cls-113" points="482.3 196.3 482.21 197.57 3.94 175.77 4.04 174.5 482.3 196.3"/><polygon class="cls-114" points="482.25 197.16 482.16 198.43 3.9 176.63 3.99 175.36 482.25 197.16"/><polygon class="cls-115" points="482.21 197.97 482.16 199.24 3.9 177.45 3.94 176.18 482.21 197.97"/><polygon class="cls-116" points="482.16 198.84 482.12 200.1 3.86 178.31 3.9 177.04 482.16 198.84"/><polygon class="cls-117" points="482.12 199.7 482.07 200.97 3.81 179.17 3.86 177.9 482.12 199.7"/><polygon class="cls-118" points="482.07 200.51 482.03 201.78 3.77 179.99 3.81 178.72 482.07 200.51"/><polygon class="cls-119" points="482.03 201.37 481.98 202.64 3.72 180.85 3.81 179.58 482.03 201.37"/><polygon class="cls-120" points="482.03 202.23 481.94 203.5 3.68 181.71 3.77 180.44 482.03 202.23"/><polygon class="cls-121" points="481.98 203.05 481.94 204.32 3.68 182.52 3.72 181.25 481.98 203.05"/><polygon class="cls-122" points="481.94 203.91 481.89 205.18 3.63 183.38 3.68 182.11 481.94 203.91"/><polygon class="cls-123" points="481.89 204.77 481.85 206.04 3.59 184.24 3.63 182.97 481.89 204.77"/><polygon class="cls-124" points="481.85 205.59 481.81 206.86 3.54 185.06 3.59 183.79 481.85 205.59"/><polygon class="cls-125" points="481.81 206.45 481.76 207.72 3.5 185.92 3.54 184.65 481.81 206.45"/><polygon class="cls-126" points="481.81 207.31 481.71 208.58 3.45 186.78 3.54 185.51 481.81 207.31"/><polygon class="cls-127" points="481.76 208.13 481.67 209.39 3.45 187.6 3.5 186.33 481.76 208.13"/><polygon class="cls-128" points="481.71 208.99 481.67 210.25 3.41 188.46 3.45 187.19 481.71 208.99"/><polygon class="cls-129" points="481.67 209.85 481.63 211.12 3.36 189.32 3.41 188.05 481.67 209.85"/><polygon class="cls-130" points="481.63 210.66 481.58 211.93 3.32 190.13 3.36 188.87 481.63 210.66"/><polygon class="cls-131" points="481.58 211.52 481.54 212.79 3.27 191 3.32 189.73 481.58 211.52"/><polygon class="cls-132" points="481.58 212.38 481.49 213.65 3.23 191.86 3.32 190.59 481.58 212.38"/><polygon class="cls-133" points="481.54 213.2 481.45 214.47 3.18 192.67 3.27 191.4 481.54 213.2"/><polygon class="cls-134" points="481.49 214.06 481.45 215.33 3.18 193.53 3.23 192.26 481.49 214.06"/><polygon class="cls-135" points="481.45 214.92 481.4 216.19 3.14 194.4 3.18 193.13 481.45 214.92"/><polygon class="cls-136" points="481.4 215.74 481.36 217.01 3.09 195.21 3.14 193.94 481.4 215.74"/><polygon class="cls-137" points="481.36 216.6 481.31 217.87 3.05 196.07 3.09 194.8 481.36 216.6"/><polygon class="cls-138" points="481.31 217.46 481.27 218.73 3 196.93 3.09 195.66 481.31 217.46"/><polygon class="cls-139" points="481.31 218.28 481.22 219.54 2.96 197.75 3.05 196.48 481.31 218.28"/><polygon class="cls-140" points="481.27 219.14 481.22 220.41 2.96 198.61 3 197.34 481.27 219.14"/><polygon class="cls-141" points="481.22 220 481.18 221.27 2.91 199.47 2.96 198.2 481.22 220"/><polygon class="cls-142" points="481.18 220.81 481.13 222.08 2.87 200.29 2.91 199.02 481.18 220.81"/><polygon class="cls-143" points="481.13 221.67 481.09 222.94 2.82 201.15 2.87 199.88 481.13 221.67"/><polygon class="cls-144" points="481.09 222.53 481.04 223.8 2.78 202.01 2.82 200.74 481.09 222.53"/><polygon class="cls-145" points="481.09 223.35 481 224.62 2.73 202.82 2.82 201.55 481.09 223.35"/><polygon class="cls-146" points="481.04 224.21 480.95 225.48 2.73 203.68 2.78 202.41 481.04 224.21"/><polygon class="cls-147" points="481 225.07 480.95 226.34 2.69 204.54 2.73 203.28 481 225.07"/><polygon class="cls-148" points="480.95 225.89 480.91 227.16 2.64 205.36 2.69 204.09 480.95 225.89"/><polygon class="cls-149" points="480.91 226.75 480.86 228.02 2.6 206.22 2.64 204.95 480.91 226.75"/><polygon class="cls-150" points="480.86 227.61 480.82 228.88 2.55 207.08 2.6 205.81 480.86 227.61"/><polygon class="cls-151" points="480.86 228.43 480.77 229.69 2.51 207.9 2.6 206.63 480.86 228.43"/><polygon class="cls-152" points="480.82 229.29 480.73 230.56 2.46 208.76 2.55 207.49 480.82 229.29"/><polygon class="cls-153" points="480.77 230.15 480.73 231.42 2.46 209.62 2.51 208.35 480.77 230.15"/><polygon class="cls-154" points="480.73 230.96 480.68 232.23 2.42 210.44 2.46 209.17 480.73 230.96"/><polygon class="cls-155" points="480.68 231.82 480.64 233.09 2.38 211.3 2.42 210.03 480.68 231.82"/><polygon class="cls-156" points="480.64 232.69 480.59 233.95 2.33 212.16 2.38 210.89 480.64 232.69"/><polygon class="cls-157" points="480.59 233.5 480.55 234.77 2.29 212.97 2.38 211.71 480.59 233.5"/><polygon class="cls-158" points="480.59 234.36 480.5 235.63 2.24 213.84 2.33 212.57 480.59 234.36"/><polygon class="cls-159" points="480.55 235.22 480.5 236.49 2.24 214.7 2.29 213.43 480.55 235.22"/><polygon class="cls-160" points="480.5 236.04 480.46 237.31 2.2 215.51 2.24 214.24 480.5 236.04"/><polygon class="cls-161" points="480.46 236.9 480.41 238.17 2.15 216.37 2.2 215.1 480.46 236.9"/><polygon class="cls-162" points="480.41 237.76 480.37 239.03 2.11 217.23 2.15 215.96 480.41 237.76"/><polygon class="cls-163" points="480.37 238.58 480.32 239.84 2.06 218.05 2.11 216.78 480.37 238.58"/><polygon class="cls-164" points="480.37 239.44 480.28 240.71 2.02 218.91 2.11 217.64 480.37 239.44"/><polygon class="cls-165" points="480.32 240.3 480.24 241.57 2.02 219.77 2.06 218.5 480.32 240.3"/><polygon class="cls-166" points="480.28 241.11 480.24 242.38 1.97 220.59 2.02 219.32 480.28 241.11"/><polygon class="cls-167" points="480.24 241.97 480.19 243.24 1.93 221.45 1.97 220.18 480.24 241.97"/><polygon class="cls-168" points="480.19 242.84 480.14 244.1 1.88 222.31 1.93 221.04 480.19 242.84"/><polygon class="cls-169" points="480.14 243.65 480.1 244.92 1.84 223.12 1.88 221.85 480.14 243.65"/><polygon class="cls-170" points="480.14 244.51 480.06 245.78 1.79 223.99 1.88 222.72 480.14 244.51"/><polygon class="cls-171" points="480.1 245.37 480.01 246.64 1.75 224.85 1.84 223.58 480.1 245.37"/><polygon class="cls-172" points="480.06 246.19 480.01 247.46 1.75 225.66 1.79 224.39 480.06 246.19"/><polygon class="cls-173" points="480.01 247.05 479.96 248.32 1.7 226.52 1.75 225.25 480.01 247.05"/><polygon class="cls-174" points="479.96 247.91 479.92 249.18 1.66 227.38 1.7 226.12 479.96 247.91"/><polygon class="cls-175" points="479.92 248.73 479.88 250 1.61 228.2 1.66 226.93 479.92 248.73"/><polygon class="cls-176" points="479.88 249.59 479.83 250.86 1.57 229.06 1.66 227.79 479.88 249.59"/><polygon class="cls-177" points="479.88 250.45 479.79 251.72 1.52 229.92 1.61 228.65 479.88 250.45"/><polygon class="cls-178" points="479.83 251.26 479.79 252.53 1.52 230.74 1.57 229.47 479.83 251.26"/><polygon class="cls-179" points="479.79 252.13 479.74 253.39 1.48 231.6 1.52 230.33 479.79 252.13"/><polygon class="cls-180" points="479.74 252.99 479.7 254.25 1.43 232.46 1.48 231.19 479.74 252.99"/><polygon class="cls-181" points="479.7 253.8 479.65 255.07 1.39 233.27 1.43 232.01 479.7 253.8"/><polygon class="cls-182" points="479.65 254.66 479.61 255.93 1.34 234.13 1.39 232.87 479.65 254.66"/><polygon class="cls-183" points="479.65 255.52 479.56 256.79 1.3 234.95 1.39 233.73 479.65 255.52"/><polygon class="cls-184" points="479.61 256.34 479.52 257.61 1.3 235.81 1.34 234.54 479.61 256.34"/><polygon class="cls-185" points="479.56 257.2 479.52 258.47 1.25 236.67 1.3 235.4 479.56 257.2"/><polygon class="cls-186" points="479.52 258.06 479.47 259.33 1.21 237.49 1.25 236.22 479.52 258.06"/><polygon class="cls-187" points="479.47 258.88 479.43 260.15 1.16 238.35 1.21 237.08 479.47 258.88"/><polygon class="cls-188" points="479.43 259.74 479.38 261.01 1.12 239.21 1.16 237.94 479.43 259.74"/><polygon class="cls-189" points="479.43 260.6 479.34 261.87 1.07 240.03 1.16 238.76 479.43 260.6"/><polygon class="cls-190" points="479.38 261.42 479.29 262.68 1.03 240.89 1.12 239.62 479.38 261.42"/><polygon class="cls-191" points="479.34 262.28 479.29 263.55 1.03 241.75 1.07 240.48 479.34 262.28"/><polygon class="cls-192" points="479.29 263.14 479.25 264.41 0.98 242.56 1.03 241.29 479.29 263.14"/><polygon class="cls-193" points="479.25 263.95 479.2 265.22 0.94 243.43 0.98 242.16 479.25 263.95"/><polygon class="cls-194" points="479.2 264.81 479.16 266.08 0.89 244.29 0.94 243.02 479.2 264.81"/><polygon class="cls-195" points="479.16 265.67 479.11 266.94 0.85 245.1 0.89 243.83 479.16 265.67"/><polygon class="cls-196" points="479.16 266.49 479.07 267.76 0.81 245.96 0.89 244.69 479.16 266.49"/><polygon class="cls-197" points="479.11 267.35 479.07 268.62 0.81 246.82 0.85 245.56 479.11 267.35"/><polygon class="cls-198" points="479.07 268.21 479.02 269.48 0.76 247.64 0.81 246.37 479.07 268.21"/><polygon class="cls-199" points="479.02 269.03 478.98 270.3 0.71 248.5 0.76 247.23 479.02 269.03"/><polygon class="cls-200" points="478.98 269.89 478.93 271.16 0.67 249.36 0.71 248.09 478.98 269.89"/><polygon class="cls-201" points="478.93 270.75 478.89 272.02 0.63 250.18 0.67 248.91 478.93 270.75"/><polygon class="cls-202" points="478.93 271.56 478.84 272.83 0.58 251.04 0.67 249.77 478.93 271.56"/><polygon class="cls-203" points="478.89 272.43 478.8 273.69 0.54 251.9 0.63 250.63 478.89 272.43"/><polygon class="cls-204" points="478.84 273.29 478.8 274.56 0.54 252.71 0.58 251.45 478.84 273.29"/><polygon class="cls-205" points="478.8 274.1 478.75 275.37 0.49 253.57 0.54 252.31 478.8 274.1"/><polygon class="cls-206" points="478.75 274.96 478.71 276.23 0.45 254.44 0.49 253.17 478.75 274.96"/><polygon class="cls-207" points="478.71 275.82 478.66 277.05 0.4 255.25 0.45 253.98 478.71 275.82"/><polygon class="cls-208" points="478.71 276.64 478.62 277.91 0.36 256.11 0.45 254.84 478.71 276.64"/><polygon class="cls-209" points="478.66 277.5 478.57 278.77 0.31 256.97 0.4 255.71 478.66 277.5"/><polygon class="cls-210" points="478.62 278.32 478.57 279.59 0.31 257.79 0.36 256.52 478.62 278.32"/><polygon class="cls-211" points="478.57 279.18 478.53 280.45 0.27 258.65 0.31 257.38 478.57 279.18"/><polygon class="cls-212" points="478.53 280.04 478.49 281.31 0.22 259.51 0.27 258.24 478.53 280.04"/><polygon class="cls-213" points="478.49 280.86 478.44 282.12 0.18 260.33 0.22 259.06 478.49 280.86"/><polygon class="cls-214" points="478.44 281.72 478.39 282.99 0.13 261.19 0.18 259.92 478.44 281.72"/><polygon class="cls-214" points="478.44 282.58 478.39 283.39 0.13 261.6 0.18 260.78 478.44 282.58"/></g><path class="cls-1" d="M302.9,350.18C354.77,286.7,490.53,270.52,537,262.54c4.89-1.45,5.07-2,2.38-4.48l-87.67-83C393,186.91,339.11,196.52,303.8,211.65c-27.41-15.77-97.94-32-149.94-36.56L65.79,258.42c-3,2.81,1.3,3.58,1.66,3.58,20.64,2.13,192.83,24.51,235.45,88.18Z" transform="translate(-59.2 -77.48)"/><path class="cls-215" d="M106.26,242.47c87.13,11.55,116,21.25,181.7,59.68" transform="translate(-59.2 -77.48)"/><path class="cls-215" d="M128.78,221c63.93,8.48,96.5,16,135.27,34.53" transform="translate(-59.2 -77.48)"/><path class="cls-215" d="M147.31,199.69c56,7.43,87.93,14.05,121,28.05" transform="translate(-59.2 -77.48)"/><path class="cls-215" d="M497.39,243.92c-87.13,11.55-116,21.25-181.7,59.68" transform="translate(-59.2 -77.48)"/><path class="cls-215" d="M475.59,221c-63.94,8.48-96.51,16-135.27,34.53" transform="translate(-59.2 -77.48)"/><path class="cls-215" d="M457.06,199.69c-56,7.43-87.94,14.05-121,28.05" transform="translate(-59.2 -77.48)"/><path class="cls-214" d="M302.9,325.26c51.87-63.53,187.63-79.71,234.11-87.69,4.89-1.45,5.07-1.94,2.38-4.48l-87.67-83C393,161.94,339.11,171.55,303.8,186.69c-27.41-15.77-97.94-32-149.94-36.57L65.79,233.45c-3,2.81,1.3,3.58,1.66,3.58,20.64,2.13,192.83,24.56,235.45,88.23Z" transform="translate(-59.2 -77.48)"/><path class="cls-216" d="M302.9,325.26c51.87-63.53,187.63-79.71,234.11-87.69,4.89-1.45,5.07-1.94,2.38-4.48l-87.67-83C393,161.94,339.11,171.55,303.8,186.69c-27.41-15.77-97.94-32-149.94-36.57L65.79,233.45c-3,2.81,1.3,3.58,1.66,3.58,20.64,2.13,192.83,24.56,235.45,88.23Zm219.66-84c-55.5,8.84-171.79,27.42-218.67,84.78l-.27.28a1.21,1.21,0,0,1-1.75-.37c-14.9-22.2-45.94-39.42-80.76-52.47-63.84-23.88-140.2-33.72-153.71-35.12h-.09a7.75,7.75,0,0,1-2.06-.63,3.72,3.72,0,0,1-1.3-1c-.05,0-.05-.09-.09-.13a2.69,2.69,0,0,1-.23-2.36,5.33,5.33,0,0,1,1.31-1.77l88-83.28a1.36,1.36,0,0,1,1-.37c26.74,2.31,58.41,7.75,86.59,14.64,26.42,6.43,49.8,14.14,63.35,21.75,31.27-13.28,76.72-22.29,127.15-32.31,6.5-1.27,13.1-2.58,20.41-4a1.18,1.18,0,0,1,1.12.32l87.67,82.92c1.84,1.72,2.65,2.86,1.93,4.26-.54,1-2,1.68-4.76,2.49,0,0-.13,0-.18,0-4.44.77-9.24,1.54-14.67,2.4Z" transform="translate(-59.2 -77.48)"/><path class="cls-215" d="M106.26,216.77c87.13,11.56,116,21.21,181.7,59.68" transform="translate(-59.2 -77.48)"/><path class="cls-215" d="M128.78,195.34c63.93,8.47,96.5,15.95,135.27,34.53" transform="translate(-59.2 -77.48)"/><path class="cls-215" d="M147.31,174c56,7.43,87.93,14.1,121,28.1" transform="translate(-59.2 -77.48)"/><path class="cls-215" d="M497.39,218.22c-87.13,11.56-116,21.26-181.7,59.68" transform="translate(-59.2 -77.48)"/><path class="cls-215" d="M475.59,195.34c-63.94,8.47-96.51,15.95-135.27,34.53" transform="translate(-59.2 -77.48)"/><path class="cls-215" d="M457.06,174c-56,7.43-87.94,14.1-121,28.1" transform="translate(-59.2 -77.48)"/><polygon class="cls-3" points="243.35 246.91 244.56 89.63 244.74 89.63 243.53 246.91 243.35 246.91"/><g class="cls-217"><polygon class="cls-218" points="109.56 147.95 110.19 147.18 268.52 277.14 267.84 277.95 109.56 147.95"/><polygon class="cls-218" points="109.92 147.54 110.81 146.41 269.1 276.41 268.2 277.5 109.92 147.54"/><polygon class="cls-218" points="110.5 146.77 111.4 145.68 269.68 275.64 268.79 276.78 110.5 146.77"/><polygon class="cls-218" points="111.08 146.04 112.03 144.91 270.31 274.92 269.41 276.01 111.08 146.04"/><polygon class="cls-218" points="111.71 145.27 112.61 144.19 270.89 274.15 270 275.28 111.71 145.27"/><polygon class="cls-218" points="112.3 144.55 113.19 143.42 271.48 273.42 270.58 274.56 112.3 144.55"/><polygon class="cls-218" points="112.92 143.82 113.82 142.69 272.11 272.7 271.21 273.79 112.92 143.82"/><polygon class="cls-218" points="113.51 143.05 114.4 141.97 272.69 271.93 271.79 273.06 113.51 143.05"/><polygon class="cls-218" points="114.09 142.33 114.99 141.19 273.27 271.2 272.37 272.29 114.09 142.33"/><polygon class="cls-218" points="114.72 141.56 115.61 140.47 273.9 270.43 273 271.56 114.72 141.56"/><polygon class="cls-218" points="115.3 140.83 116.2 139.7 274.48 269.71 273.58 270.84 115.3 140.83"/><polygon class="cls-218" points="115.88 140.11 116.78 138.97 275.11 268.94 274.21 270.07 115.88 140.11"/><polygon class="cls-218" points="116.51 139.34 117.41 138.25 275.69 268.21 274.8 269.35 116.51 139.34"/><polygon class="cls-218" points="117.09 138.61 117.99 137.48 276.28 267.49 275.38 268.57 117.09 138.61"/><polygon class="cls-218" points="117.68 137.84 118.58 136.75 276.9 266.72 276.01 267.85 117.68 137.84"/><polygon class="cls-218" points="118.31 137.12 119.2 135.98 277.49 265.99 276.59 267.08 118.31 137.12"/><polygon class="cls-218" points="118.89 136.35 119.79 135.26 278.07 265.22 277.18 266.35 118.89 136.35"/><polygon class="cls-218" points="119.47 135.62 120.37 134.49 278.7 264.5 277.8 265.63 119.47 135.62"/><polygon class="cls-218" points="120.1 134.9 121 133.76 279.28 263.77 278.39 264.86 120.1 134.9"/><polygon class="cls-218" points="120.69 134.13 121.58 133.04 279.87 263 278.97 264.13 120.69 134.13"/><polygon class="cls-219" points="121.27 133.4 122.17 132.27 280.5 262.28 279.6 263.36 121.27 133.4"/><polygon class="cls-219" points="121.9 132.63 122.79 131.54 281.08 261.51 280.18 262.64 121.9 132.63"/><polygon class="cls-219" points="122.48 131.91 123.38 130.77 281.66 260.78 280.76 261.87 122.48 131.91"/><polygon class="cls-219" points="123.06 131.18 124 130.05 282.29 260.01 281.39 261.14 123.06 131.18"/><polygon class="cls-219" points="123.69 130.41 124.59 129.28 282.87 259.29 281.98 260.42 123.69 130.41"/><polygon class="cls-219" points="124.27 129.69 125.17 128.55 283.46 258.56 282.56 259.65 124.27 129.69"/><polygon class="cls-219" points="124.9 128.91 125.8 127.83 284.08 257.79 283.19 258.92 124.9 128.91"/><polygon class="cls-219" points="125.48 128.19 126.38 127.06 284.67 257.06 283.77 258.15 125.48 128.19"/><polygon class="cls-219" points="126.07 127.42 126.97 126.33 285.25 256.29 284.35 257.43 126.07 127.42"/><polygon class="cls-219" points="126.7 126.69 127.59 125.56 285.88 255.57 284.98 256.7 126.7 126.69"/><polygon class="cls-219" points="127.28 125.97 128.18 124.84 286.46 254.84 285.56 255.93 127.28 125.97"/><polygon class="cls-219" points="127.86 125.2 128.76 124.11 287.09 254.07 286.15 255.21 127.86 125.2"/><polygon class="cls-219" points="128.49 124.47 129.39 123.34 287.67 253.35 286.78 254.44 128.49 124.47"/><polygon class="cls-219" points="129.07 123.7 129.97 122.62 288.26 252.58 287.36 253.71 129.07 123.7"/><polygon class="cls-219" points="129.66 122.98 130.56 121.85 288.88 251.85 287.99 252.94 129.66 122.98"/><polygon class="cls-219" points="130.29 122.21 131.18 121.12 289.47 251.08 288.57 252.22 130.29 122.21"/><polygon class="cls-219" points="130.87 121.48 131.77 120.35 290.05 250.36 289.15 251.49 130.87 121.48"/><polygon class="cls-219" points="131.45 120.76 132.35 119.63 290.68 249.63 289.78 250.72 131.45 120.76"/><polygon class="cls-219" points="132.08 119.99 132.98 118.9 291.26 248.86 290.37 250 132.08 119.99"/><polygon class="cls-219" points="132.66 119.26 133.56 118.13 291.85 248.14 290.95 249.22 132.66 119.26"/><polygon class="cls-219" points="133.25 118.49 134.14 117.41 292.47 247.37 291.58 248.5 133.25 118.49"/><polygon class="cls-219" points="133.88 117.77 134.77 116.64 293.06 246.64 292.16 247.78 133.88 117.77"/><polygon class="cls-219" points="134.46 117.04 135.36 115.91 293.64 245.87 292.74 247 134.46 117.04"/><polygon class="cls-219" points="135.04 116.27 135.98 115.14 294.27 245.15 293.37 246.28 135.04 116.27"/><polygon class="cls-219" points="135.67 115.55 136.57 114.41 294.85 244.42 293.95 245.51 135.67 115.55"/><polygon class="cls-219" points="136.25 114.78 137.15 113.69 295.44 243.65 294.54 244.78 136.25 114.78"/><polygon class="cls-219" points="136.88 114.05 137.78 112.92 296.06 242.93 295.17 244.01 136.88 114.05"/><polygon class="cls-219" points="137.46 113.28 138.36 112.19 296.65 242.16 295.75 243.29 137.46 113.28"/><polygon class="cls-219" points="138.05 112.56 138.94 111.42 297.23 241.43 296.33 242.56 138.05 112.56"/><polygon class="cls-219" points="138.68 111.83 139.57 110.7 297.86 240.71 296.96 241.79 138.68 111.83"/><polygon class="cls-219" points="139.26 111.06 140.16 109.97 298.44 239.94 297.54 241.07 139.26 111.06"/><polygon class="cls-219" points="139.84 110.34 140.74 109.2 299.07 239.21 298.13 240.3 139.84 110.34"/><polygon class="cls-219" points="140.47 109.57 141.37 108.48 299.65 238.44 298.75 239.57 140.47 109.57"/><polygon class="cls-219" points="141.05 108.84 141.95 107.71 300.24 237.72 299.34 238.8 141.05 108.84"/><polygon class="cls-219" points="141.64 108.12 142.53 106.98 300.86 236.94 299.97 238.08 141.64 108.12"/><polygon class="cls-219" points="142.26 107.34 143.16 106.21 301.45 236.22 300.55 237.35 142.26 107.34"/><polygon class="cls-220" points="142.85 106.62 143.75 105.49 302.03 235.5 301.13 236.58 142.85 106.62"/><polygon class="cls-220" points="143.43 105.85 144.33 104.76 302.66 234.72 301.76 235.86 143.43 105.85"/><polygon class="cls-220" points="144.06 105.13 144.96 103.99 303.24 234 302.34 235.09 144.06 105.13"/><polygon class="cls-220" points="144.64 104.36 145.54 103.27 303.82 233.23 302.93 234.36 144.64 104.36"/><polygon class="cls-220" points="145.23 103.63 146.12 102.5 304.45 232.5 303.56 233.64 145.23 103.63"/><polygon class="cls-220" points="145.85 102.91 146.75 101.77 305.04 231.73 304.14 232.87 145.85 102.91"/><polygon class="cls-220" points="146.44 102.13 147.34 101.05 305.62 231.01 304.72 232.14 146.44 102.13"/><polygon class="cls-220" points="147.02 101.41 147.92 100.28 306.25 230.28 305.35 231.37 147.02 101.41"/><polygon class="cls-220" points="147.65 100.64 148.55 99.55 306.83 229.51 305.93 230.65 147.65 100.64"/><polygon class="cls-220" points="148.23 99.91 149.13 98.78 307.41 228.79 306.52 229.88 148.23 99.91"/><polygon class="cls-220" points="148.86 99.14 149.76 98.06 308.04 228.02 307.14 229.15 148.86 99.14"/><polygon class="cls-220" points="149.44 98.42 150.34 97.29 308.63 227.29 307.73 228.43 149.44 98.42"/><polygon class="cls-220" points="150.03 97.69 150.92 96.56 309.21 226.57 308.31 227.66 150.03 97.69"/><polygon class="cls-220" points="150.66 96.92 151.55 95.84 309.84 225.8 308.94 226.93 150.66 96.92"/><polygon class="cls-220" points="151.24 96.2 152.13 95.06 310.42 225.07 309.52 226.16 151.24 96.2"/><polygon class="cls-220" points="151.82 95.43 152.72 94.34 311.05 224.3 310.11 225.44 151.82 95.43"/><polygon class="cls-220" points="152.45 94.7 153.35 93.57 311.63 223.58 310.73 224.71 152.45 94.7"/><polygon class="cls-220" points="153.03 93.98 153.93 92.84 312.21 222.81 311.32 223.94 153.03 93.98"/><polygon class="cls-220" points="153.62 93.21 154.51 92.07 312.84 222.08 311.94 223.22 153.62 93.21"/><polygon class="cls-220" points="154.24 92.48 155.14 91.35 313.43 221.36 312.53 222.44 154.24 92.48"/><polygon class="cls-220" points="154.83 91.71 155.72 90.62 314.01 220.59 313.11 221.72 154.83 91.71"/><polygon class="cls-220" points="155.41 90.99 156.31 89.85 314.64 219.86 313.74 220.95 155.41 90.99"/><polygon class="cls-220" points="156.04 90.22 156.94 89.13 315.22 219.09 314.32 220.22 156.04 90.22"/><polygon class="cls-220" points="156.62 89.49 157.52 88.36 315.8 218.37 314.91 219.5 156.62 89.49"/><polygon class="cls-220" points="157.21 88.77 158.1 87.63 316.43 217.64 315.53 218.73 157.21 88.77"/><polygon class="cls-220" points="157.83 88 158.73 86.91 317.01 216.87 316.12 218 157.83 88"/><polygon class="cls-220" points="158.42 87.27 159.31 86.14 317.6 216.15 316.7 217.23 158.42 87.27"/><polygon class="cls-220" points="159 86.5 159.9 85.41 318.23 215.38 317.33 216.51 159 86.5"/><polygon class="cls-220" points="159.63 85.78 160.53 84.64 318.81 214.65 317.91 215.74 159.63 85.78"/><polygon class="cls-220" points="160.21 85 161.11 83.92 319.39 213.88 318.5 215.01 160.21 85"/><polygon class="cls-220" points="160.84 84.28 161.74 83.15 320.02 213.16 319.12 214.29 160.84 84.28"/><polygon class="cls-220" points="161.42 83.56 162.32 82.42 320.6 212.43 319.71 213.52 161.42 83.56"/><polygon class="cls-220" points="162.01 82.78 162.9 81.7 321.19 211.66 320.29 212.79 162.01 82.78"/><polygon class="cls-220" points="162.63 82.06 163.53 80.93 321.81 210.93 320.92 212.02 162.63 82.06"/><polygon class="cls-220" points="163.22 81.29 164.11 80.2 322.4 210.16 321.5 211.3 163.22 81.29"/><polygon class="cls-220" points="163.8 80.56 164.7 79.43 323.03 209.44 322.08 210.57 163.8 80.56"/><polygon class="cls-221" points="164.43 79.84 165.33 78.71 323.61 208.67 322.71 209.8 164.43 79.84"/><polygon class="cls-221" points="165.01 79.07 165.91 77.98 324.19 207.94 323.3 209.08 165.01 79.07"/><polygon class="cls-221" points="165.59 78.34 166.49 77.21 324.82 207.22 323.92 208.31 165.59 78.34"/><polygon class="cls-221" points="166.22 77.57 167.12 76.49 325.4 206.45 324.51 207.58 166.22 77.57"/><polygon class="cls-221" points="166.81 76.85 167.7 75.72 325.99 205.72 325.09 206.81 166.81 76.85"/><polygon class="cls-221" points="167.39 76.08 168.29 74.99 326.62 204.95 325.72 206.09 167.39 76.08"/><polygon class="cls-221" points="168.02 75.35 168.91 74.22 327.2 204.23 326.3 205.36 168.02 75.35"/><polygon class="cls-221" points="168.6 74.63 169.5 73.5 327.78 203.5 326.88 204.59 168.6 74.63"/><polygon class="cls-221" points="169.18 73.86 170.08 72.77 328.41 202.73 327.51 203.87 169.18 73.86"/><polygon class="cls-221" points="169.81 73.13 170.71 72 328.99 202.01 328.1 203.09 169.81 73.13"/><polygon class="cls-221" points="170.4 72.36 171.29 71.28 329.58 201.24 328.68 202.37 170.4 72.36"/><polygon class="cls-221" points="170.98 71.64 171.88 70.5 330.2 200.51 329.31 201.6 170.98 71.64"/><polygon class="cls-221" points="171.61 70.91 172.5 69.78 330.79 199.74 329.89 200.88 171.61 70.91"/><polygon class="cls-221" points="172.19 70.14 173.09 69.01 331.37 199.02 330.47 200.15 172.19 70.14"/><polygon class="cls-221" points="172.82 69.42 173.72 68.28 332 198.29 331.1 199.38 172.82 69.42"/><polygon class="cls-221" points="173.4 68.65 174.3 67.56 332.58 197.52 331.69 198.65 173.4 68.65"/><polygon class="cls-221" points="173.99 67.92 174.88 66.79 333.17 196.8 332.27 197.88 173.99 67.92"/><polygon class="cls-221" points="174.61 67.15 175.51 66.06 333.8 196.03 332.9 197.16 174.61 67.15"/><polygon class="cls-221" points="175.2 66.43 176.09 65.29 334.38 195.3 333.48 196.43 175.2 66.43"/><polygon class="cls-221" points="175.78 65.7 176.68 64.57 335.01 194.58 334.06 195.66 175.78 65.7"/><polygon class="cls-221" points="176.41 64.93 177.31 63.84 335.59 193.81 334.69 194.94 176.41 64.93"/><polygon class="cls-221" points="176.99 64.21 177.89 63.07 336.17 193.08 335.27 194.17 176.99 64.21"/><polygon class="cls-221" points="177.57 63.44 178.47 62.35 336.8 192.31 335.9 193.44 177.57 63.44"/><polygon class="cls-221" points="178.2 62.71 179.1 61.58 337.38 191.59 336.49 192.67 178.2 62.71"/><polygon class="cls-221" points="178.78 61.94 179.68 60.85 337.97 190.81 337.07 191.95 178.78 61.94"/><polygon class="cls-221" points="179.37 61.22 180.27 60.08 338.6 190.09 337.7 191.22 179.37 61.22"/><polygon class="cls-221" points="180 60.49 180.89 59.36 339.18 189.37 338.28 190.45 180 60.49"/><polygon class="cls-221" points="180.58 59.72 181.48 58.63 339.76 188.59 338.86 189.73 180.58 59.72"/><polygon class="cls-221" points="181.16 58.99 182.06 57.86 340.39 187.87 339.49 188.96 181.16 58.99"/><polygon class="cls-221" points="181.79 58.22 182.69 57.14 340.97 187.1 340.08 188.23 181.79 58.22"/><polygon class="cls-221" points="182.37 57.5 183.27 56.37 341.56 186.37 340.66 187.51 182.37 57.5"/><polygon class="cls-221" points="182.96 56.77 183.85 55.64 342.18 185.6 341.29 186.74 182.96 56.77"/><polygon class="cls-221" points="183.59 56 184.48 54.87 342.77 184.88 341.87 186.01 183.59 56"/><polygon class="cls-221" points="184.17 55.28 185.07 54.15 343.35 184.15 342.45 185.24 184.17 55.28"/><polygon class="cls-221" points="184.8 54.51 185.69 53.42 343.98 183.38 343.08 184.52 184.8 54.51"/><polygon class="cls-221" points="185.38 53.78 186.28 52.65 344.56 182.66 343.67 183.75 185.38 53.78"/><polygon class="cls-221" points="185.96 53.01 186.86 51.93 345.14 181.89 344.25 183.02 185.96 53.01"/><polygon class="cls-214" points="186.59 52.29 187.49 51.16 345.77 181.16 344.88 182.3 186.59 52.29"/><polygon class="cls-214" points="187.18 51.56 188.07 50.43 346.36 180.44 345.46 181.53 187.18 51.56"/><polygon class="cls-214" points="187.76 50.79 188.66 49.7 346.99 179.67 346.04 180.8 187.76 50.79"/><polygon class="cls-214" points="188.39 50.07 189.28 48.94 347.57 178.94 346.67 180.03 188.39 50.07"/><polygon class="cls-214" points="188.97 49.3 189.87 48.21 348.15 178.17 347.25 179.31 188.97 49.3"/><polygon class="cls-214" points="189.55 48.57 190.45 47.44 348.78 177.45 347.88 178.53 189.55 48.57"/><polygon class="cls-214" points="190.18 47.85 191.08 46.72 349.36 176.68 348.46 177.81 190.18 47.85"/><polygon class="cls-214" points="190.76 47.08 191.66 45.94 349.95 175.95 349.05 177.09 190.76 47.08"/><polygon class="cls-214" points="191.35 46.35 192.25 45.22 350.57 175.23 349.68 176.31 191.35 46.35"/><polygon class="cls-214" points="191.98 45.58 192.87 44.49 351.16 174.46 350.26 175.59 191.98 45.58"/><polygon class="cls-214" points="192.56 44.86 193.46 43.72 351.74 173.73 350.84 174.82 192.56 44.86"/><polygon class="cls-214" points="193.14 44.09 194.04 43 352.37 172.96 351.47 174.09 193.14 44.09"/><polygon class="cls-221" points="193.77 43.36 194.67 42.23 352.95 172.24 352.06 173.37 193.77 43.36"/><polygon class="cls-221" points="194.35 42.64 195.25 41.5 353.54 171.47 352.64 172.6 194.35 42.64"/><polygon class="cls-221" points="194.94 41.87 195.83 40.78 354.16 170.74 353.27 171.87 194.94 41.87"/><polygon class="cls-221" points="195.56 41.14 196.46 40.01 354.75 170.01 353.85 171.1 195.56 41.14"/><polygon class="cls-221" points="196.15 40.37 197.04 39.28 355.33 169.25 354.43 170.38 196.15 40.37"/><polygon class="cls-221" points="196.78 39.65 197.67 38.51 355.96 168.52 355.06 169.61 196.78 39.65"/><polygon class="cls-221" points="197.36 38.88 198.26 37.79 356.54 167.75 355.64 168.88 197.36 38.88"/><polygon class="cls-221" points="197.94 38.15 198.84 37.02 357.12 167.03 356.23 168.16 197.94 38.15"/><polygon class="cls-221" points="198.57 37.42 199.47 36.29 357.75 166.3 356.86 167.39 198.57 37.42"/><polygon class="cls-221" points="199.15 36.66 200.05 35.57 358.34 165.53 357.44 166.66 199.15 36.66"/><polygon class="cls-221" points="199.74 35.93 200.63 34.8 358.96 164.8 358.02 165.89 199.74 35.93"/><polygon class="cls-221" points="200.37 35.16 201.26 34.07 359.55 164.03 358.65 165.17 200.37 35.16"/><polygon class="cls-221" points="200.95 34.43 201.85 33.3 360.13 163.31 359.23 164.44 200.95 34.43"/><polygon class="cls-221" points="201.53 33.71 202.43 32.58 360.76 162.54 359.86 163.67 201.53 33.71"/><polygon class="cls-221" points="202.16 32.94 203.06 31.81 361.34 161.81 360.44 162.95 202.16 32.94"/><polygon class="cls-221" points="202.74 32.21 203.64 31.08 361.93 161.09 361.03 162.18 202.74 32.21"/><polygon class="cls-221" points="203.33 31.44 204.22 30.36 362.55 160.32 361.66 161.45 203.33 31.44"/><polygon class="cls-221" points="203.96 30.72 204.85 29.59 363.14 159.59 362.24 160.68 203.96 30.72"/><polygon class="cls-221" points="204.54 29.95 205.44 28.86 363.72 158.82 362.82 159.96 204.54 29.95"/><polygon class="cls-221" points="205.12 29.22 206.02 28.09 364.35 158.1 363.45 159.23 205.12 29.22"/><polygon class="cls-221" points="205.75 28.5 206.65 27.36 364.93 157.37 364.03 158.46 205.75 28.5"/><polygon class="cls-221" points="206.33 27.73 207.23 26.64 365.51 156.6 364.62 157.74 206.33 27.73"/><polygon class="cls-221" points="206.92 27 207.81 25.87 366.14 155.88 365.25 156.97 206.92 27"/><polygon class="cls-221" points="207.54 26.23 208.44 25.14 366.73 155.11 365.83 156.24 207.54 26.23"/><polygon class="cls-214" points="208.13 25.51 209.02 24.37 367.31 154.38 366.41 155.47 208.13 25.51"/><polygon class="cls-214" points="208.75 24.74 209.65 23.65 367.94 153.61 367.04 154.74 208.75 24.74"/><polygon class="cls-214" points="209.34 24.01 210.24 22.88 368.52 152.89 367.62 154.02 209.34 24.01"/><polygon class="cls-214" points="209.92 23.29 210.82 22.15 369.1 152.16 368.21 153.25 209.92 23.29"/><polygon class="cls-214" points="210.55 22.52 211.45 21.43 369.73 151.39 368.83 152.52 210.55 22.52"/><polygon class="cls-214" points="211.13 21.79 212.03 20.66 370.31 150.67 369.42 151.75 211.13 21.79"/><polygon class="cls-214" points="211.72 21.02 212.61 19.93 370.9 149.9 370 151.03 211.72 21.02"/><polygon class="cls-214" points="212.34 20.3 213.24 19.16 371.53 149.17 370.63 150.3 212.34 20.3"/><polygon class="cls-214" points="212.93 19.57 213.82 18.44 372.11 148.4 371.21 149.53 212.93 19.57"/><polygon class="cls-214" points="213.51 18.8 214.41 17.67 372.74 147.68 371.84 148.81 213.51 18.8"/><polygon class="cls-214" points="214.14 18.08 215.04 16.94 373.32 146.95 372.42 148.04 214.14 18.08"/><polygon class="cls-214" points="214.72 17.3 215.62 16.22 373.9 146.18 373.01 147.31 214.72 17.3"/><polygon class="cls-214" points="215.31 16.58 216.2 15.45 374.53 145.46 373.63 146.54 215.31 16.58"/><polygon class="cls-214" points="215.93 15.81 216.83 14.72 375.12 144.69 374.22 145.82 215.93 15.81"/><polygon class="cls-214" points="216.52 15.09 217.41 13.95 375.7 143.96 374.8 145.09 216.52 15.09"/><polygon class="cls-214" points="217.1 14.36 218 13.23 376.33 143.24 375.43 144.32 217.1 14.36"/><polygon class="cls-214" points="217.73 13.59 218.63 12.5 376.91 142.46 376.01 143.6 217.73 13.59"/><polygon class="cls-214" points="218.31 12.87 219.21 11.73 377.49 141.74 376.6 142.83 218.31 12.87"/><polygon class="cls-214" points="218.9 12.09 228.54 0.18 386.82 130.14 377.22 142.1 218.9 12.09"/></g><path class="cls-1" d="M377.2,153.65c21.08,19.85,34,48.08,35.58,80,.4,7.7-.14,8.83-1.22,16.45-5.6,7.25-89.73,31.72-102.06,32.26-20.78.14-91.13-17.13-113.74-34.8-.13-1.54-1.21-2-1.25-3.45-1.62-31.9,7.58-60.08,26.51-82.06s45.9-36.39,76.41-38,58.73,9.79,79.77,29.59Z" transform="translate(-59.2 -77.48)"/><path class="cls-222" d="M412.19,202.91a15.22,15.22,0,0,1-3.59-1.41l-2,3.9a19.31,19.31,0,0,0,4.49,1.72Zm21-16.68a13.5,13.5,0,0,1-.36,3.76l4.26,1a18.21,18.21,0,0,0,.41-4.94Zm-1.62,7.34a19.76,19.76,0,0,1-2.1,3.27l3.32,2.81a20.35,20.35,0,0,0,2.64-4.08Zm-4.89,6a25,25,0,0,1-3.27,2.08l1.88,3.94a22.71,22.71,0,0,0,4-2.58Zm-6.9,3.39a14.86,14.86,0,0,1-3.82.41v4.4a21.17,21.17,0,0,0,4.8-.55Z" transform="translate(-59.2 -77.48)"/><path class="cls-223" d="M297.88,123.61a108.44,108.44,0,0,1,78.78,28,109.59,109.59,0,0,1,35.94,76c.18,3.68.18,7.39,0,11-.09,2.08-.23,4.17-.45,6.2-.36,3.18,0,5-2.78,6.53-22.93,13-65.37,29.59-100.86,31.18-36,1.49-66-6.21-111.85-33.13l-.27-.13c-2.92-1.68-2-6.21-2.24-9.93a110.27,110.27,0,0,1,28.13-79.44,109.12,109.12,0,0,1,75.6-36.29Z" transform="translate(-59.2 -77.48)"/><path class="cls-214" d="M249.06,141.64c9.2,5.53-12.65,6.94,22.66,11.78,5.25.73,9.38-2.94,12.07.41,3.54,4.44,3.14,5.62,6.41,6.8,11.71,4.26,36.61-11.6,38.5-13s0-5.39,1.25-5.89,4.58,2.17,6.29.09c2.69-3.31-1.39-4.31,1.12-10.38a106.72,106.72,0,0,1,37.86,22.16c.72.64,1.44,1.32,2.16,2,1.07,2.54,1.7,5.85-1.21,7.48-5,2.81-9.34.64-10.64,4s.36,3.18-4.08,3.81-5.92,0-5.79,4.4c.23,10.06-2.87,20.8.45,20.66,6-.18,8.21-2.49,7.49-.14s1.13,8.39-2.69,10.74-7.71.55-7.18,6.53,3,5.35,6.11,6.57,2.19,6.39,4.71,8.2,6.1,4.53,8.12,1.09c8.7-14.77,14.62-15.59,15.74-23,.32-2.31-1.43-7.2,2.47-3.17,3.59,3.67,13.24,13.14,8.17,19.35-2.43,2.95-6.28,3.94-2.34,4.08s6.15.82,7.14-2.17c1.88-5.49-2.47-8.3,5-9.29.54,3.3,1,6.66,1.26,10.06a30,30,0,0,1-3.05,3.17c-1.57,1.22-3.55.59-4.58,1.4-1.3,1-5.29,9.84-13.19,4.13-1.3-1-3.86-3.22-5.43,2.62s-2.46,8-4.75,15.59c-1.93,6.48-7.27,9.07-7.72,12.19-20,7.8-41,14.46-62.59,15.41a135.2,135.2,0,0,1-23.69-1.13,91.81,91.81,0,0,0-8.56-14.05c-4.58-5.76-3,.41-11.94-.14s-6.06-.68-10.59-1.22-3.9.59-5.07-2.67-1.84-4.13-4.35-7.66c-3.77-5.49,12.2-9.38,18.08-10.56,6.24-1.27-.67,8.74,9.78,5.84,2.29-.63.5-3.71-3.05-7.74s-3.81-5-4.31-9.75,4.94-6.84,6.73-12.19c.9-2.58,4.22-.59,7.36-1.31,3.46-.82,5.52-4.8,6.82-6.12,5.43-5.25-12.74-28.86-20-24.2-3.19,2-3.68,2-3.59,4.26s-1.48,3-4.53,1.82c-6.24-2.54-.14,15.86-.63,17.26-.81,2.22-5.07-.09-6.1-4.26s-2.38-3.08-5.7-3.17-.81-4.53-.81-6.34-3.23-3.4-1.61-5c12.69-12.74,1.7-13.19-3.37-17.13-2.11-1.63-3.63-7.34-3.68-9.84-.09-5-.63-9.51,3-16.17,4.66-3.54,4.89-3.4,10.09-6.17Z" transform="translate(-59.2 -77.48)"/><path class="cls-223" d="M328.47,216.59c1.8,1.18,5.52,1.5,7.36-1.27s.81-6.7,5.74-11.69,6.15-11.6,5.48-13.45-7.4-2.41-7.36-7.8-.72-8,2.06-10.06.5-10.42-3.05-9.83-6.14-2.36-7.62,2.44-1.39,7.12-1.71,11.61a5.22,5.22,0,0,1-4.4,5.12c-.31,0-2.1-.28-1.7,2.9s-2.83,3.71-4,5.16-3.19,3.76-1.48,7.25,3,2.54,5.25,3.54,3.72-1.73,2.69,2.58,2.06,4.49,2,6-2.34,4.3-1.48,5.16,2.19,2.31,2.19,2.31Z" transform="translate(-59.2 -77.48)"/><path class="cls-214" d="M216.09,171.51a107.61,107.61,0,0,0-19.61,67.7c.05,1.45.18,2.85.27,4.16.09,1.09.22,2.22.36,3.4a417.78,417.78,0,0,0,40.47,18.54c2.6-.68,5.47-1.5,5.83-2.59.72-2.08-4.31-7.34-6.33-8.74a8.08,8.08,0,0,1-2.73-3.81s-14.18-8.47-13.73-10.65,1.88-7,.4-8.56-3.68-.59-4,3-2.6,4.72-4.53,4.26-1.12-4.75.09-6.11c7.72-8.57-2.82-35.26-.4-37.39s15.52-4.8,15.16-7c-.49-3.21-1-2.22-4.84-2-5.3.28-6.64-9-6.46-14.22Z" transform="translate(-59.2 -77.48)"/><path class="cls-224" d="M279.12,184.74c-1.34.59-2.69,1.22-4,1.86l1.84,3.94,3.9-1.77Zm112.17,47.85c-.41-.91-.86-1.77-1.31-2.63l-3.85,2c.44.82.85,1.63,1.21,2.45Zm-3.41-6.53c-.72-1.26-1.44-2.53-2.11-3.8L382,224.39c.72,1.27,1.44,2.58,2.16,3.85Zm-4.27-7.61-2.11-3.85-3.76,2.13c.67,1.27,1.39,2.58,2.1,3.85Zm-4.21-7.7c-.72-1.27-1.48-2.59-2.29-3.85l-3.64,2.35,2.16,3.67Zm-4.71-7.57c-.86-1.22-1.71-2.45-2.61-3.62l-3.45,2.67c.85,1.13,1.7,2.26,2.51,3.44Zm-5.43-7.11c-1-1.18-2-2.27-3-3.36l-3.09,3.08c.94,1,1.88,2,2.82,3.13ZM363,189.59c-1.12-1.05-2.29-2-3.45-3l-2.65,3.49c1.08.86,2.15,1.77,3.18,2.72ZM355.89,184a43,43,0,0,0-3.82-2.4L350,185.46c1.17.77,2.38,1.41,3.55,2.22ZM348,179.57a44.12,44.12,0,0,0-4.18-1.72L342.38,182a37.63,37.63,0,0,1,3.86,1.59Zm-8.44-3.13c-1.48-.4-2.92-.77-4.4-1l-.8,4.31c1.34.27,2.69.59,4,.95Zm-8.84-1.76c-1.48-.18-3-.32-4.48-.41l-.23,4.4a40.64,40.64,0,0,1,4.17.36Zm-8.93-.5c-1.52,0-3,0-4.48.18l.31,4.35c1.39-.09,2.78-.14,4.22-.18Zm-8.92.59c-1.44.18-2.92.41-4.36.63l.72,4.35c1.39-.27,2.78-.45,4.17-.63Zm-8.75,1.49c-1.44.32-2.87.68-4.31,1.05l1.12,4.26c1.39-.37,2.74-.73,4.13-1Zm-8.53,2.27c-1.43.41-2.82.91-4.21,1.36l1.39,4.17c1.34-.5,2.69-.91,4.08-1.36Zm-8.39,2.85c-1.34.55-2.73,1.09-4.08,1.64l1.66,4c1.3-.55,2.65-1,4-1.54Z" transform="translate(-59.2 -77.48)"/><path class="cls-225" d="M264.63,187.77c3.64.18,2.29,0,4.4-2.49,3.32-4,3.18-9.2-.9-7.66-2.29.86-4.71,3.4-4.67,4.94a27.76,27.76,0,0,0,1.17,5.21Z" transform="translate(-59.2 -77.48)"/><path class="cls-225" d="M276.12,179.89c.45,2,5.87-3.22,5.07-4.58s-1.57-3.67-3.82-3.44c-8.12.81-1.7,6-1.25,8Z" transform="translate(-59.2 -77.48)"/><path class="cls-226" d="M152.29,134.17a17.19,17.19,0,0,0-12.7,26.69l6,9.15c1.3,2,2.6,4,3.95,6.07,1,1.54,2,3.72,3.36,4.22,2.38.86,3.46-1.5,4.35-2.9,3.32-5.08,6.55-10.24,9.87-15.27a4.32,4.32,0,0,0,.45-.77c.18-.23.36-.5.54-.78A11.87,11.87,0,0,0,169,159a15,15,0,0,0,1.34-3.72,17.21,17.21,0,0,0-9.55-19.71,16.84,16.84,0,0,0-8.48-1.4Z" transform="translate(-59.2 -77.48)"/><path class="cls-214" d="M152.74,141.28a9.14,9.14,0,0,0-6.15,3.26,9.46,9.46,0,1,0,16.51,5.17,9.14,9.14,0,0,0-3.27-6.25,9.25,9.25,0,0,0-7.09-2.18Z" transform="translate(-59.2 -77.48)"/><path class="cls-227" d="M269.7,120.57a29.68,29.68,0,0,0-21.85,46l10.28,15.77c2.28,3.58,4.48,6.93,6.82,10.51,1.7,2.59,3.49,6.39,5.78,7.21,4.13,1.54,6-2.58,7.54-5,5.74-8.7,11.31-17.62,17-26.32.36-.5.54-.86.81-1.27s.58-.91.9-1.36a24.62,24.62,0,0,0,1.52-2.72,28.17,28.17,0,0,0,2.34-6.39,29.45,29.45,0,0,0-31.14-36.48Z" transform="translate(-59.2 -77.48)"/><path class="cls-228" d="M270.55,132.9c-5.34.81-8,2.58-10.63,5.57a16.32,16.32,0,1,0,28.49,8.93,16.17,16.17,0,0,0-5.65-10.79,15.94,15.94,0,0,0-12.21-3.71Z" transform="translate(-59.2 -77.48)"/><path class="cls-229" d="M386.93,189.4a17.19,17.19,0,0,0-12.69,26.7l6,9.15c1.3,2.08,2.61,4,3.95,6.12,1,1.49,2,3.71,3.37,4.16,2.37.91,3.45-1.49,4.35-2.9,3.32-5,6.55-10.24,9.87-15.27a5.14,5.14,0,0,0,.45-.72c.18-.27.36-.54.54-.77a14,14,0,0,0,.89-1.59,16.06,16.06,0,0,0,1.35-3.71,17.31,17.31,0,0,0-1.71-12.46,17,17,0,0,0-16.33-8.71Z" transform="translate(-59.2 -77.48)"/><path class="cls-228" d="M387.38,196.52a9.16,9.16,0,0,0-6.14,3.26,9.39,9.39,0,1,0,6.14-3.26Z" transform="translate(-59.2 -77.48)"/><path class="cls-230" d="M432.38,146a14.45,14.45,0,0,0-10.63,22.43l5,7.66c1.08,1.76,2.16,3.4,3.32,5.12.81,1.27,1.71,3.12,2.79,3.53,2,.73,2.91-1.27,3.67-2.44,2.79-4.26,5.52-8.57,8.3-12.83a4.57,4.57,0,0,0,.36-.63,5.52,5.52,0,0,0,.45-.64,14.2,14.2,0,0,0,.76-1.31,13.35,13.35,0,0,0,1.13-3.13,14.61,14.61,0,0,0-1.44-10.47A14.29,14.29,0,0,0,432.38,146Z" transform="translate(-59.2 -77.48)"/><path class="cls-214" d="M432.79,151.93a8,8,0,0,0-7,8.75,7.9,7.9,0,1,0,15.7-1.68,7.94,7.94,0,0,0-8.7-7.07Z" transform="translate(-59.2 -77.48)"/><path class="cls-231" d="M158,187.46a10.33,10.33,0,0,1-1.17-3.4l-4.3.59a14.32,14.32,0,0,0,1.66,4.85Zm36.16,16.85a30.66,30.66,0,0,1-4-.31l-.62,4.3a31.55,31.55,0,0,0,4.57.41ZM186,203.23c-1.39-.28-2.74-.64-4.09-1l-1.16,4.21c1.39.41,2.87.77,4.3,1.09Zm-8.12-2.32c-1.3-.45-2.61-.95-3.91-1.49l-1.66,4c1.35.59,2.74,1.14,4.18,1.63Zm-7.72-3.26c-1.21-.63-2.42-1.31-3.59-2l-2.33,3.72c1.3.81,2.64,1.54,4,2.22Zm-6.95-4.39a24.9,24.9,0,0,1-3-2.72l-3.18,2.94a23.39,23.39,0,0,0,3.45,3.22Z" transform="translate(-59.2 -77.48)"/><path class="cls-232" d="M201.37,224.21c-1.43-.32-2.92-.68-4.35-.91l-.72,4.3c1.35.28,2.78.59,4.13.91Zm64.52-20.4a18.81,18.81,0,0,1-1.12,3.77l4,1.67a22.61,22.61,0,0,0,1.39-4.57Zm-3,7.3a23.36,23.36,0,0,1-2.43,3.17l3.19,2.95a25.25,25.25,0,0,0,2.87-3.72Zm-5.34,6a35.46,35.46,0,0,1-3.32,2.45l2.38,3.67a30.55,30.55,0,0,0,3.67-2.72Zm-6.87,4.53c-1.25.64-2.46,1.18-3.77,1.73l1.62,4.07c1.39-.63,2.74-1.22,4.13-1.9ZM243,224.8c-1.31.4-2.65.77-4,1.13l1,4.26c1.48-.36,2.92-.77,4.35-1.23Zm-8.12,2c-1.4.23-2.79.41-4.18.59l.5,4.35c1.48-.18,3-.36,4.39-.64Zm-8.3.91c-1.35,0-2.83,0-4.18,0l-.27,4.35a36.18,36.18,0,0,0,4.54.09Zm-8.35-.46c-1.39-.13-2.83-.36-4.22-.59l-.67,4.35c1.44.23,2.92.46,4.35.59Zm-8.43-1.31c-1.44-.23-2.83-.55-4.22-.82l-.9,4.31c1.44.31,2.87.59,4.31.86Z" transform="translate(-59.2 -77.48)"/></svg>